<?xml version="1.0" standalone="no"?>
<!DOCTYPE svg PUBLIC "-//W3C//DTD SVG 1.1//EN" "http://www.w3.org/Graphics/SVG/1.1/DTD/svg11.dtd">
<svg xmlns="http://www.w3.org/2000/svg">
<defs >
<font id="BalooBhai2" horiz-adv-x="541" ><font-face
    font-family="Baloo Bhai 2"
    units-per-em="1000"
    panose-1="0 0 0 0 0 0 0 0 0 0"
    ascent="1078"
    descent="-544"
    alphabetic="0" />
<glyph unicode=" " horiz-adv-x="200" />
<glyph unicode="!" horiz-adv-x="288" d="M221 563Q221 539 220 498T217 407T210 309T200 222Q192 215 174 212T143 208Q118 208 101 216T79 248Q75 272 72 316T66 415T62 520T60 611Q98 633 145 633Q181 633 201 616T221 563ZM56 69Q56 107 79 131T143 155Q183
155 207 131T231 69Q231 32 207 8T143 -16Q103 -16 80 8T56 69Z" />
<glyph unicode="&quot;" horiz-adv-x="380" d="M146 387Q136 381 123 379T94 377Q71 377 56 386T38 418L26 612Q54 633 97 633Q131 633 148 620T165 577Q165 560 162 524T155 451T146 387ZM332 387Q322 381 309 379T280 377Q257 377 242 386T224 418L212 612Q225
622 243 627T284 633Q318 633 334 620T351 577Q351 560 348 524T341 451T332 387Z" />
<glyph unicode="#" horiz-adv-x="704" d="M593 136H48Q42 145 38 159T33 191Q33 222 47 235T85 249H629Q634 240 639 226T645 194Q645 164 631 150T593 136ZM620 365H76Q70 375 65 389T60 420Q60 451 74 464T112 478H657Q662 469 667 455T672 423Q672 393 658
379T620 365ZM335 465L233 -1Q222 -3 212 -3T190 -4Q158 -4 139 9T119 57Q119 79 124 104T134 147L235 614Q247 616 258 616T279 616Q311 616 331 604T351 557Q351 535 346 511T335 465ZM570 465L468 -1Q457 -3 446 -3T425 -4Q393 -4 373 9T353 57Q353 79 359 104T368
147L470 614Q482 616 493 616T513 616Q546 616 566 604T586 557Q586 535 580 511T570 465Z" />
<glyph unicode="$" horiz-adv-x="556" d="M209 60H343V-87Q334 -89 318 -91T283 -94Q245 -94 227 -81T209 -31V60ZM343 528H209V695Q218 698 234 700T269 703Q308 703 325 690T343 640V528ZM255 109Q308 109 331 128T355 173Q355 198 337 213T283 239L231 255Q177
274 136 296T71 353T47 442Q47 525 110 574T287 624Q344 624 388 613T458 581T484 527Q484 505 473 488T447 459Q424 474 386 485T302 497Q255 497 231 482T207 442Q207 423 223 411T270 389L325 371Q416 343 465 297T514 172Q514 88 449 36T260 -17Q199 -17 151
-4T75 34T46 92Q46 119 61 137T96 166Q123 144 164 127T255 109Z" />
<glyph unicode="%" horiz-adv-x="793" d="M348 461Q348 389 304 348T191 306Q122 306 78 347T34 461Q34 534 78 575T191 616Q259 616 303 575T348 461ZM144 461Q144 430 157 414T191 397Q211 397 224 413T237 461Q237 493 224 508T191 524Q171 524 158 509T144
461ZM194 104L545 617Q576 612 600 600T625 566Q625 552 618 537T599 504L248 -7Q214 -4 191 9T168 44Q168 58 175 73T194 104ZM759 148Q759 75 715 34T602 -8Q534 -8 490 33T446 148Q446 220 490 261T602 302Q671 302 715 261T759 148ZM556 148Q556 115 569 99T602
83Q622 83 635 99T649 148Q649 178 636 194T602 210Q582 210 569 194T556 148Z" />
<glyph unicode="&amp;" horiz-adv-x="665" d="M544 113L487 62Q447 21 391 3T279 -16Q203 -16 150 10T68 82T39 185Q39 236 59 273T112 335T182 373L252 281Q232 276 217 264T192 234T182 194Q182 154 209 128T287 101Q308 101 341 110T406 151L452 220Q464 253
468 294T473 373Q490 380 505 383T535 386Q576 386 590 364T604 304Q604 259 590 209T544 113ZM566 -14Q530 -14 496 21L210 310L183 350Q147 390 137 419T126 473Q126 515 147 549T208 603T307 623Q368 623 394 602T420 548Q420 533 414 518T395 492Q383 498 367
501T334 505Q305 505 287 492T269 454Q269 436 281 420T318 379L640 63Q638 29 617 8T566 -14Z" />
<glyph unicode="&apos;" horiz-adv-x="202" d="M154 390Q145 385 130 381T97 377Q73 377 57 388T38 421L26 609Q39 618 58 625T102 633Q136 633 154 619T173 574Q173 556 170 522T163 452T154 390Z" />
<glyph unicode="(" horiz-adv-x="294" d="M219 -132Q184 -132 160 -110T117 -56Q85 0 65 81T45 268Q45 373 66 454T117 590Q134 622 159 644T219 666Q243 666 262 653T290 623Q241 551 215 467T188 268Q188 154 214 70T290 -89Q281 -104 262 -118T219 -132Z" />
<glyph unicode=")" horiz-adv-x="294" d="M76 -132Q52 -132 33 -118T5 -89Q55 -14 81 70T107 268Q107 382 81 466T5 623Q14 639 33 652T76 666Q112 666 136 644T178 590Q209 536 229 455T250 268Q250 162 231 81T178 -56Q161 -88 137 -110T76 -132Z" />
<glyph unicode="*" horiz-adv-x="340" d="M151 545L184 444L25 490Q20 506 20 523Q20 546 33 559T70 572Q76 572 84 570T100 565L151 545ZM227 499L131 359Q126 358 121 357T111 356Q81 356 66 368T50 401Q50 412 55 422T70 444L106 490L227 499ZM144 467L198
538L296 402Q291 382 276 369T240 356Q219 356 208 368T186 398L144 467ZM137 519L278 583Q294 576 305 562T316 529Q316 507 305 499T274 482L207 454L137 519ZM214 515L124 470L123 632Q130 637 142 643T172 649Q192 649 205 639T218 606Q218 601 217 582T215
544T214 515Z" />
<glyph unicode="+" horiz-adv-x="546" d="M456 231H49Q43 242 39 256T35 289Q35 321 50 336T90 351H496Q501 342 506 326T511 292Q511 259 496 245T456 231ZM343 468V54Q333 52 315 49T280 46Q244 46 225 58T206 111V524Q216 526 233 529T269 533Q304 533 323
520T343 468Z" />
<glyph unicode="," horiz-adv-x="222" d="M132 -78Q103 -116 57 -116Q18 -116 -9 -93Q4 -55 15 -14T36 68T52 143Q67 151 87 156T130 162Q158 162 178 149T199 104Q199 78 189 43T163 -24T132 -78Z" />
<glyph unicode="-" horiz-adv-x="362" d="M271 195H52Q45 205 40 221T35 255Q35 287 50 302T91 317H310Q315 308 320 292T326 258Q326 225 311 210T271 195Z" />
<glyph unicode="." horiz-adv-x="217" d="M21 73Q21 110 45 136T109 162Q149 162 172 136T196 73Q196 35 173 10T109 -16Q69 -16 45 9T21 73Z" />
<glyph unicode="/" horiz-adv-x="335" d="M308 549L130 -106Q118 -108 107 -108T84 -109Q48 -109 28 -93T8 -41Q8 -18 15 7T27 50L205 705Q218 707 230 707T251 708Q286 708 307 693T328 644Q328 619 321 596T308 549Z" />
<glyph unicode="0" horiz-adv-x="601" d="M300 -15Q223 -15 164 20T72 127T39 304Q39 410 73 480T166 586T300 622Q375 622 434 587T527 480T562 304Q562 198 529 127T436 21T300 -15ZM300 105Q352 105 381 154T410 304Q410 369 397 413T358 479T300 502Q266 502
242 480T204 413T191 304Q191 204 219 155T300 105Z" />
<glyph unicode="1" horiz-adv-x="385" d="M310 151H159V464L53 427Q38 436 25 452T11 497Q11 550 76 572L194 615H227Q265 615 287 593T310 533V151ZM159 264H310V1Q300 -2 282 -5T242 -8Q199 -8 179 7T159 63V264Z" />
<glyph unicode="2" horiz-adv-x="519" d="M59 525Q59 557 82 578T145 611T238 622Q314 622 365 599T443 534T470 439Q470 386 440 336T347 233L210 118H462Q467 109 472 94T477 60Q477 28 463 14T425 0H77Q57 13 47 34T36 82Q36 113 48 134T76 168L223 298Q277
345 297 374T317 431Q317 463 293 482T223 501Q182 501 150 488T96 460Q81 471 70 487T59 525Z" />
<glyph unicode="3" horiz-adv-x="515" d="M230 623Q339 623 399 577T460 450Q460 416 447 390T414 345T371 317Q399 308 422 289T460 241T475 168Q475 111 444 70T358 7T232 -15Q166 -15 121 -3T51 32T27 83Q27 107 38 125T68 152Q89 138 123 122T213 106Q266
106 294 126T323 181Q323 215 300 233T223 252H132Q125 262 121 276T116 310Q116 331 120 346T132 370H222Q267 370 287 387T308 435Q308 466 282 484T207 502Q165 502 133 492T79 466Q64 477 54 493T43 531Q43 561 66 581T131 612T230 623Z" />
<glyph unicode="4" horiz-adv-x="590" d="M48 279L291 603Q308 608 330 611T369 615Q396 615 420 608T459 583T475 531V247H558Q564 238 569 222T574 187Q574 155 559 140T521 125H475V0Q466 -1 446 -4T408 -8Q370 -8 349 3T328 55V125H79Q59 136 45 157T30 208Q30
225 34 245T48 279ZM335 247V462H333L188 247H335Z" />
<glyph unicode="5" horiz-adv-x="525" d="M235 608L210 517L198 373Q217 379 239 384T292 389Q359 389 404 364T473 294T497 192Q497 136 471 89T391 14T252 -15Q192 -15 147 -3T76 33T50 89Q50 114 65 132T97 159Q124 138 158 122T242 105Q294 105 319 130T344
191Q344 227 321 249T250 271Q222 271 202 264T157 245Q113 247 87 270T61 337Q61 341 61 346T62 365L76 525Q78 563 99 585T159 608H235ZM171 486V608H451Q457 599 462 584T467 549Q467 517 453 502T413 486H171Z" />
<glyph unicode="6" horiz-adv-x="556" d="M477 540Q477 521 468 504T447 477Q421 488 392 495T336 502Q273 502 236 466T189 357Q209 372 244 386T319 400Q411 400 466 347T521 196Q521 138 494 90T416 14T288 -15Q212 -15 156 19T70 120T39 287Q39 373 60 436T119
540T207 602T319 622Q368 622 403 613T458 586T477 540ZM289 105Q327 105 348 130T369 196Q369 238 347 260T288 283Q261 283 236 272T195 242V224Q195 164 221 135T289 105Z" />
<glyph unicode="7" horiz-adv-x="477" d="M75 608H425Q441 598 453 581T465 537Q465 523 462 508T452 477L235 -6Q223 -7 212 -7T191 -7Q151 -7 126 8T101 60Q101 79 110 101T134 152L297 486H37Q32 496 27 511T21 545Q21 579 36 593T75 608Z" />
<glyph unicode="8" horiz-adv-x="562" d="M282 -17Q209 -17 154 5T68 68T37 166Q37 218 61 253T122 310T199 339L264 358Q313 369 339 389T366 444Q366 475 344 492T282 510Q245 510 223 492T201 443Q201 418 214 402T250 377T302 363L391 330Q425 319 456 300T509
249T530 165Q530 108 499 67T413 5T282 -17ZM282 98Q326 98 352 117T379 175Q379 216 340 241T232 271L188 301Q126 317 90 354T53 450Q53 504 82 543T162 603T282 624Q390 624 452 578T514 451Q514 392 480 358T396 307L309 275Q247 267 218 239T188 175Q188 138
213 118T282 98Z" />
<glyph unicode="9" horiz-adv-x="557" d="M72 68Q72 87 81 104T102 131Q127 119 157 112T215 105Q261 105 295 121T348 171T367 252Q355 242 336 233T294 218T243 212Q184 212 137 234T63 300T36 410Q36 469 63 517T142 593T268 622Q345 622 401 588T487 486T518
320Q518 206 482 132T384 22T237 -15Q163 -15 118 6T72 68ZM276 327Q302 327 325 338T362 368V376Q362 437 338 469T267 502Q230 502 208 479T186 414Q186 371 212 349T276 327Z" />
<glyph unicode=":" horiz-adv-x="243" d="M38 394Q38 432 62 457T126 483Q166 483 190 458T214 394Q214 357 190 332T126 306Q86 306 62 331T38 394ZM34 73Q34 110 57 136T121 162Q162 162 185 136T209 73Q209 35 186 10T121 -16Q81 -16 58 9T34 73Z" />
<glyph unicode=";" horiz-adv-x="252" d="M40 394Q40 432 63 457T127 483Q168 483 191 458T215 394Q215 357 192 332T127 306Q87 306 64 331T40 394ZM146 -78Q118 -116 72 -116Q33 -116 5 -93Q19 -55 30 -14T51 68T66 143Q81 151 102 156T144 162Q173 162 193
149T214 104Q214 78 204 43T178 -24T146 -78Z" />
<glyph unicode="&lt;" horiz-adv-x="486" d="M178 281L453 151Q455 145 455 138T456 125Q456 94 441 71T388 47Q370 47 352 54T308 76L58 205Q35 235 35 283Q35 319 46 339T76 370L382 525Q424 513 439 494T455 451Q455 420 439 403T393 369L178 281Z" />
<glyph unicode="=" horiz-adv-x="511" d="M419 339H51Q45 349 41 364T36 396Q36 429 51 444T91 459H460Q465 449 470 433T475 399Q475 367 460 353T419 339ZM419 132H51Q45 142 41 156T36 189Q36 222 51 236T91 251H460Q465 242 470 226T475 192Q475 159 460 146T419
132Z" />
<glyph unicode="&gt;" horiz-adv-x="484" d="M306 291L33 417Q32 423 31 430T30 444Q30 475 45 498T99 521Q117 521 137 513T178 494L426 366Q449 336 449 288Q449 252 439 232T408 201L107 46Q65 58 50 78T34 121Q34 151 50 169T96 202L306 291Z" />
<glyph unicode="?" horiz-adv-x="490" d="M232 229L131 208Q116 218 103 238T90 286Q90 314 105 328T149 349L225 368Q260 378 277 394T294 440Q294 465 272 485T199 506Q159 506 122 496T62 469Q47 481 36 498T25 538Q25 586 79 610T218 634Q295 634 347 609T426
541T454 440Q454 354 399 303T232 229ZM103 70Q103 107 127 131T191 156Q231 156 254 132T278 70Q278 33 255 9T191 -16Q151 -16 127 8T103 70Z" />
<glyph unicode="@" horiz-adv-x="1054" d="M458 198Q458 153 480 134T535 115Q568 115 590 132T631 177L665 56Q642 32 603 16T510 0Q421 0 365 52T308 198Q308 270 339 324T426 409T556 439Q609 439 647 427T713 396Q753 371 753 333Q753 328 753 322T751 311L722
55L585 53L610 309Q600 314 587 317T554 321Q514 321 486 290T458 198ZM633 32Q634 54 645 74T678 107T726 120Q732 117 742 114T762 110Q811 110 838 156T866 275Q866 356 826 417T716 512T552 546Q446 546 365 502T239 381T194 204Q194 108 234 38T344 -69T504
-107Q547 -107 576 -103T626 -95Q633 -105 638 -119T643 -147Q643 -171 630 -189T585 -216T493 -226Q429 -226 365 -210T245 -160T144 -76T75 44T50 204Q50 310 87 394T193 537T352 629T551 661Q653 661 737 634T882 555T976 433T1009 274Q1009 142 945 69T762
-5Q732 -5 697 4T633 32Z" />
<glyph unicode="A" horiz-adv-x="619" d="M315 477H310Q299 446 286 408T259 328T233 244L214 152Q208 132 203 112T192 72T181 34T172 0Q160 -3 146 -6T112 -10Q69 -10 47 5T25 49Q25 62 28 75T37 105Q46 138 62 188T98 296T138 412T176 516T203 591Q219 600
249 607T311 615Q354 615 388 603T432 562Q452 509 474 440T518 295T562 148T600 19Q589 7 568 -1T517 -10Q475 -10 458 5T432 51L401 161L383 248Q371 292 359 333T335 412T315 477ZM147 134L207 254H439L459 134H147Z" />
<glyph unicode="B" horiz-adv-x="615" d="M388 365V255H167V365H388ZM314 255L325 339Q409 339 464 320T547 264T575 176Q575 79 503 32T297 -15Q274 -15 243 -13T181 -6T122 8Q70 27 70 76V552Q70 572 81 583T111 600Q145 612 193 617T293 622Q417 622 485 579T554
449Q554 400 526 367T443 315T313 297L306 365Q354 365 376 383T399 437Q399 468 373 486T295 504Q276 504 255 503T221 499V113Q237 108 261 107T308 105Q357 105 387 124T417 183Q417 220 391 237T314 255Z" />
<glyph unicode="C" horiz-adv-x="575" d="M539 523Q539 501 527 483T500 456Q475 473 444 486T369 499Q316 499 278 476T219 409T198 303Q198 207 246 158T377 109Q421 109 451 120T508 147Q523 136 532 118T542 77Q542 57 532 40T495 11Q476 1 442 -8T357 -17Q269
-17 197 17T82 122T39 303Q39 407 80 478T192 587T348 624Q407 624 450 611T516 574T539 523Z" />
<glyph unicode="D" horiz-adv-x="663" d="M465 303Q465 207 418 159T292 110Q276 110 257 112T224 116V492Q240 494 256 495T291 497Q342 497 381 476T443 412T465 303ZM624 306Q624 413 581 483T461 587T282 622Q244 622 198 618T111 601Q93 594 82 583T70 552V75Q70
27 122 8Q162 -6 210 -10T292 -15Q392 -15 466 20T582 127T624 306Z" />
<glyph unicode="E" horiz-adv-x="544" d="M70 426H221V6Q212 4 193 1T153 -2Q115 -2 93 20T70 80V426ZM221 180H70V524Q70 562 92 584T153 606Q174 606 193 603T221 598V180ZM153 248V370H454Q461 360 465 345T470 311Q470 278 456 263T417 248H153ZM153 -2V121H487Q493
111 498 95T503 60Q503 28 489 13T450 -2H153ZM153 484V606H483Q489 597 494 582T499 548Q499 515 485 500T445 484H153Z" />
<glyph unicode="F" horiz-adv-x="528" d="M223 249H70V524Q70 562 92 584T153 606Q174 606 194 603T223 598V249ZM151 225V348H451Q457 339 462 323T468 289Q468 256 454 241T413 225H151ZM153 482V606H485Q492 597 496 581T501 546Q501 514 487 498T447 482H153ZM70
307H225V1Q215 -2 195 -4T154 -7Q108 -7 89 9T70 66V307Z" />
<glyph unicode="G" horiz-adv-x="659" d="M605 300V91Q605 63 594 49T559 21Q532 6 481 -5T378 -17Q282 -17 206 16T84 120T39 302Q39 408 84 479T206 587T377 624Q438 624 484 611T554 575T579 522Q579 499 568 482T540 454Q514 470 477 484T388 499Q333 499
290 475T222 408T198 303Q198 237 221 194T286 129T380 108Q405 108 425 112T456 123V237H340Q334 247 329 263T324 297Q324 329 339 343T377 358H546Q573 358 589 343T605 300Z" />
<glyph unicode="H" horiz-adv-x="668" d="M70 425H225V1Q215 -2 195 -4T153 -7Q108 -7 89 9T70 66V425ZM225 229H70V608Q81 610 101 613T142 616Q186 616 205 601T225 543V229ZM443 425H598V1Q588 -2 568 -4T526 -7Q481 -7 462 9T443 66V425ZM598 229H443V608Q453
610 474 613T515 616Q559 616 578 600T598 541V229ZM531 243H140V366H531V243Z" />
<glyph unicode="I" horiz-adv-x="296" d="M70 425H225V1Q215 -2 195 -4T154 -7Q108 -7 89 9T70 66V425ZM225 229H70V608Q81 610 101 613T142 616Q186 616 205 601T225 543V229Z" />
<glyph unicode="J" horiz-adv-x="406" d="M184 290H338V173Q338 114 316 72T250 8T146 -14Q92 -14 57 4T22 66Q22 85 28 99T40 121Q59 116 74 114T106 111Q147 111 165 131T184 192V290ZM338 224H184V608Q194 610 215 613T255 616Q299 616 318 601T338 543V224Z" />
<glyph unicode="K" horiz-adv-x="604" d="M154 323L328 342Q411 253 476 184T583 72Q583 34 558 12T498 -10Q462 -10 439 8T394 51L154 323ZM331 269L134 259L448 612Q507 612 532 590T558 536Q558 512 547 492T509 446L331 269ZM70 426H225V1Q215 -2 195 -5T153
-8Q108 -8 89 8T70 66V426ZM225 230H70V608Q81 610 101 613T142 616Q186 616 205 601T225 543V230Z" />
<glyph unicode="L" horiz-adv-x="510" d="M70 423H225V6L153 -2Q115 -2 93 20T70 80V423ZM153 -2V123H467Q473 114 478 98T484 63Q484 30 470 14T430 -2H153ZM225 229H70V608Q81 610 101 613T142 616Q186 616 205 601T225 543V229Z" />
<glyph unicode="M" horiz-adv-x="793" d="M473 151Q462 142 444 136T400 129Q369 129 348 137T320 165Q287 259 264 321T228 429H223Q220 367 219 315T216 214T212 114T207 3Q195 0 177 -4T139 -8Q101 -8 80 5T58 51Q58 73 60 116T65 216T73 335T81 459T89 572Q97
584 121 597T188 610Q235 610 262 595T302 547Q317 511 333 464T366 369T396 283H401Q429 371 457 454T508 593Q521 601 543 605T590 610Q633 610 660 597T692 559Q696 540 701 499T711 405T720 293T729 179T737 80T741 10Q726 1 710 -3T667 -8Q635 -8 612 4T586
50Q582 128 579 198T575 326T571 425H566Q554 382 531 318T473 151Z" />
<glyph unicode="N" horiz-adv-x="675" d="M70 430L211 431Q215 388 217 346T219 265T219 190V0Q211 -2 191 -4T150 -7Q106 -7 88 8T70 63V430ZM605 180L464 178Q457 251 456 316T455 441V608Q465 610 484 613T525 616Q569 616 587 601T605 546V180ZM605 229V328V19Q592
7 568 0T512 -8Q477 -8 448 3T399 52L280 280Q269 302 259 323T239 367T219 412L70 379V580Q83 597 109 606T164 615Q198 615 228 604T277 555L397 328Q408 306 418 284T439 240T458 195L605 229Z" />
<glyph unicode="O" horiz-adv-x="700" d="M661 304Q661 200 620 129T509 20T349 -17Q260 -17 190 20T80 128T39 304Q39 408 80 479T192 587T349 624Q437 624 507 588T619 480T661 304ZM502 304Q502 399 461 449T349 499Q282 499 240 450T198 304Q198 207 239 158T350
109Q419 109 460 158T502 304Z" />
<glyph unicode="P" horiz-adv-x="578" d="M70 194V552Q70 572 81 583T111 600Q144 612 190 617T273 622Q408 622 478 565T548 408Q548 343 518 295T430 221T292 194H70ZM153 -7Q108 -7 89 9T70 66V262H225V1Q215 -2 195 -4T153 -7ZM224 316H283Q332 316 361 339T391
407Q391 452 364 475T284 498Q265 498 251 497T224 493V316Z" />
<glyph unicode="Q" horiz-adv-x="702" d="M333 5L493 35Q529 16 563 2T631 -23T694 -44Q695 -50 695 -54T695 -63Q695 -112 670 -135T602 -158Q559 -158 510 -132T406 -59L333 5ZM661 305Q661 201 620 129T509 21T349 -15Q260 -15 190 21T80 129T39 305Q39 409
80 480T192 587T349 624Q437 624 507 588T619 480T661 305ZM502 305Q502 400 461 449T349 499Q282 499 240 450T198 305Q198 208 239 159T350 110Q419 110 460 159T502 305Z" />
<glyph unicode="R" horiz-adv-x="605" d="M223 322H287Q336 322 366 344T397 410Q397 453 368 475T280 498Q264 498 251 497T223 493V322ZM301 203H70V552Q70 572 81 583T111 600Q144 612 188 617T281 622Q417 622 485 565T553 412Q553 351 520 304T431 230T301
203ZM273 240L411 271Q434 240 458 209T505 149T545 96T574 55Q565 25 542 8T489 -9Q451 -9 431 7T394 52L273 240ZM70 261H225V1Q215 -2 195 -4T153 -7Q108 -7 89 9T70 66V261Z" />
<glyph unicode="S" horiz-adv-x="545" d="M252 109Q305 109 328 128T351 173Q351 198 333 213T280 239L228 255Q174 274 132 296T67 353T44 442Q44 525 107 574T284 624Q341 624 385 613T455 581T481 527Q481 505 470 488T443 459Q421 474 383 485T299 497Q251
497 228 482T204 442Q204 423 220 411T267 389L322 371Q413 343 462 297T511 172Q511 88 446 36T257 -17Q196 -17 148 -4T72 34T43 92Q43 119 58 137T93 166Q120 144 160 127T252 109Z" />
<glyph unicode="T" horiz-adv-x="549" d="M201 482L200 606H512Q518 597 523 581T528 546Q528 514 513 498T473 482H201ZM346 606L347 482H36Q29 491 25 507T20 542Q20 576 34 591T74 606H346ZM194 509H349V1Q339 -2 319 -4T278 -7Q232 -7 213 9T194 66V509Z" />
<glyph unicode="U" horiz-adv-x="661" d="M330 -17Q248 -17 189 12T99 95T68 219V285H222V223Q222 169 252 139T330 109Q377 109 407 139T438 223V285H593V219Q593 148 562 95T472 13T330 -17ZM222 255H68V608Q78 610 98 613T139 616Q183 616 202 601T222 543V255ZM593
253H438V608Q449 610 469 613T510 616Q554 616 573 601T593 543V253Z" />
<glyph unicode="V" horiz-adv-x="623" d="M411 17Q399 7 373 -1T315 -9Q279 -9 252 2T215 33Q200 61 181 108T139 215T94 338T52 463T20 576Q32 589 55 599T106 610Q139 610 159 596T190 545Q220 440 250 344T315 144H321Q341 209 362 283T405 437T445 592Q460
600 478 605T519 610Q552 610 574 595T597 547Q597 527 587 485T560 389T522 278T480 167T440 75T411 17Z" />
<glyph unicode="W" horiz-adv-x="850" d="M348 458Q358 463 379 468T422 474Q459 474 484 463T515 430Q532 371 545 323T572 229T598 134H603Q616 217 627 292T647 441T667 593Q700 611 736 611Q769 611 792 597T816 549Q816 527 812 488T799 397T781 291T759
184T735 89T712 21Q698 10 669 2T607 -7Q566 -7 537 4T501 36Q492 65 480 103T455 187T429 282Q418 234 405 186T381 95T359 21Q346 10 319 2T260 -7Q221 -7 189 5T147 36Q137 59 124 105T96 212T68 338T45 466T28 579Q41 591 63 601T111 611Q144 611 165 596T193
546Q209 453 219 387T237 274T250 194T262 134H267Q277 175 286 210T304 282T325 360T348 458Z" />
<glyph unicode="X" horiz-adv-x="599" d="M251 269L218 275L29 541Q38 567 61 589T124 612Q150 612 170 599T210 554L337 363L377 337L572 63Q566 31 542 12T479 -8Q454 -8 435 5T396 50L251 269ZM367 269L323 241L156 -6Q150 -7 143 -7T129 -8Q81 -8 57 12T32
63Q32 88 44 107T75 153L218 336L286 390L432 604Q439 607 451 609T477 611Q516 611 538 592T561 543Q561 519 549 500T514 453Q478 407 442 361T367 269Z" />
<glyph unicode="Y" horiz-adv-x="569" d="M363 194H225Q199 233 169 281T108 380T51 479T8 566Q20 582 40 596T89 610Q124 610 145 596T187 542Q189 537 200 517T225 469T253 415T277 367T290 343H296Q318 388 336 427T371 506T408 594Q424 602 443 606T480 610Q511
610 532 594T554 545Q554 533 545 510T515 447T457 346T363 194ZM218 250H369V1Q360 -2 340 -4T299 -7Q254 -7 236 9T218 64V250Z" />
<glyph unicode="Z" horiz-adv-x="559" d="M76 170L434 609H480Q518 577 518 525Q518 503 508 481T482 439L127 0H72Q57 12 47 33T37 81Q37 104 48 127T76 170ZM92 0L165 127H508Q515 117 520 101T525 65Q525 32 511 16T470 0H92ZM451 609L393 482H63Q57 492 52
508T46 543Q46 576 61 592T102 609H451Z" />
<glyph unicode="[" horiz-adv-x="295" d="M51 -40V562H191V-40H51ZM51 -14H275Q281 -23 285 -37T289 -68Q289 -98 275 -112T238 -126H119Q84 -126 68 -106T51 -58V-14ZM119 656H275Q281 647 285 633T289 602Q289 572 275 558T238 544H51V588Q51 616 67 636T119 656Z" />
<glyph unicode="\" horiz-adv-x="356" d="M159 621L336 -26Q324 -39 302 -49T259 -59Q235 -59 218 -49T192 -11L15 636Q28 650 50 659T92 669Q116 669 134 659T159 621Z" />
<glyph unicode="]" horiz-adv-x="307" d="M245 574V-32H105V574H245ZM245 544H21Q15 553 11 567T6 598Q6 630 20 643T58 656H176Q212 656 228 636T245 588V544ZM176 -126H21Q15 -117 11 -103T6 -72Q6 -41 20 -28T58 -14H245V-58Q245 -86 229 -106T176 -126Z" />
<glyph unicode="^" horiz-adv-x="483" d="M162 643Q172 652 193 658T240 664Q302 664 321 631Q334 613 351 578T386 501T419 417T444 343Q433 332 415 323T374 313Q347 313 331 324T303 368L238 538H234Q226 518 217 493T199 439T181 383T165 328Q152 320 135
317T102 313Q76 313 58 325T39 366Q39 379 48 405T71 465T102 532T135 595T162 643Z" />
<glyph unicode="_" horiz-adv-x="500" d="M444 -174H15Q9 -164 5 -150T0 -117Q0 -84 15 -70T55 -55H485Q490 -64 495 -80T500 -114Q500 -147 485 -160T444 -174Z" />
<glyph unicode="`" horiz-adv-x="302" d="M124 551L27 643Q26 647 26 654T25 664Q25 697 44 715T90 733Q108 733 124 726T156 701L245 589Q242 558 223 543T182 527Q163 527 150 533T124 551Z" />
<glyph unicode="a" horiz-adv-x="534" d="M256 -16Q153 -16 92 24T31 143Q31 211 73 247T198 293L332 307V318Q332 352 306 367T230 382Q192 382 156 373T90 351Q78 360 70 376T61 411Q61 454 107 473Q136 484 174 489T249 495Q353 495 415 452T478 317V90Q478
65 465 50T432 23Q402 5 358 -5T256 -16ZM256 96Q278 96 300 100T333 112V206L249 198Q216 196 197 184T177 148Q177 125 195 111T256 96Z" />
<glyph unicode="b" horiz-adv-x="581" d="M313 495Q378 495 431 467T515 382T546 242Q546 159 514 102T422 15T283 -15Q221 -15 177 0T101 35Q80 50 70 68T59 111V427H209V122Q221 115 239 110T282 104Q332 104 362 139T392 242Q392 312 363 344T285 377Q253 377
229 365T186 338L183 460Q206 473 239 484T313 495ZM210 392H59V651Q69 654 87 657T127 660Q171 660 190 645T210 589V392Z" />
<glyph unicode="c" horiz-adv-x="487" d="M318 376Q264 376 226 341T188 239Q188 172 224 139T317 105Q350 105 374 113T416 131Q433 119 442 105T451 69Q451 31 411 8T301 -15Q221 -15 161 13T68 99T35 239Q35 325 71 382T166 467T296 495Q365 495 405 471T445
408Q445 390 437 375T416 350Q398 359 374 367T318 376Z" />
<glyph unicode="d" horiz-adv-x="578" d="M369 120V420H519V100Q519 77 509 60T477 30Q450 12 406 -1T305 -15Q221 -15 161 13T68 97T35 238Q35 326 68 383T158 467T285 495Q321 495 349 488T395 469V345Q381 357 358 367T306 377Q270 377 244 362T203 317T188
238Q188 169 219 137T304 104Q325 104 342 109T369 120ZM519 391L368 390V651Q378 654 396 657T436 660Q480 660 499 645T519 589V391Z" />
<glyph unicode="e" horiz-adv-x="543" d="M128 170L122 271L368 310Q366 337 345 360T280 384Q235 384 206 354T175 269L180 198Q189 145 226 122T316 99Q358 99 395 110T454 135Q469 126 479 110T489 75Q489 45 466 25T401 -5T305 -15Q228 -15 167 14T70 101T35
247Q35 311 55 358T110 435T188 480T280 495Q348 495 400 468T481 394T510 285Q510 253 493 237T445 217L128 170Z" />
<glyph unicode="f" horiz-adv-x="423" d="M180 329V445H374Q379 437 384 422T389 388Q389 357 375 343T337 329H180ZM202 484V347H59V490Q59 556 87 597T163 657T272 677Q342 677 376 659T411 598Q411 580 404 566T386 543Q368 549 346 553T297 558Q250 558 226
541T202 484ZM59 377H210V1Q200 -2 182 -4T142 -7Q99 -7 79 8T59 63V377Z" />
<glyph unicode="g" horiz-adv-x="559" d="M256 19Q196 19 146 41T65 116T35 254Q35 334 66 387T154 468T287 495Q342 495 388 481T461 450Q480 438 491 421T502 379V65H357V361Q345 368 330 372T293 377Q245 377 215 348T185 254Q185 185 213 159T283 133Q316
133 337 144T375 170L380 50Q359 37 329 28T256 19ZM359 5V99H502V1Q502 -68 469 -112T380 -178T255 -199Q203 -199 163 -190T101 -167Q66 -144 66 -104Q66 -83 75 -66T95 -41Q123 -57 160 -68T237 -80Q293 -80 326 -60T359 5Z" />
<glyph unicode="h" horiz-adv-x="578" d="M520 204H369V293Q369 338 346 357T288 377Q256 377 231 365T187 338L184 460Q207 473 240 484T315 495Q410 495 465 447T520 302V204ZM59 264H210V1Q200 -2 182 -4T142 -7Q99 -7 79 8T59 63V264ZM369 264H520V1Q510 -2
492 -4T452 -7Q409 -7 389 8T369 63V264ZM210 186H59V651Q69 654 87 657T127 660Q171 660 190 645T210 589V186Z" />
<glyph unicode="i" horiz-adv-x="273" d="M52 618Q52 653 76 676T136 700Q174 700 197 677T220 618Q220 585 197 561T136 537Q100 537 76 561T52 618ZM61 264H212V1Q202 -2 184 -4T144 -7Q101 -7 81 8T61 63V264ZM212 186H61V475Q71 478 89 480T129 483Q173 483
192 469T212 413V186Z" />
<glyph unicode="j" horiz-adv-x="278" d="M-4 -111Q20 -100 35 -86T58 -51T66 -1V247H216V-17Q216 -80 197 -119T146 -177T80 -195Q41 -195 19 -171T-4 -111ZM53 618Q53 653 76 676T137 700Q174 700 197 677T221 618Q221 585 198 561T137 537Q100 537 77 561T53
618ZM216 183L66 186V475Q75 478 93 480T134 483Q177 483 196 469T216 413V183Z" />
<glyph unicode="k" horiz-adv-x="540" d="M274 191L166 260L392 488Q438 488 465 468T493 416Q493 390 475 370T418 316L274 191ZM172 239L291 292L512 78Q508 37 488 15T429 -8Q402 -8 379 5T331 51L172 239ZM59 265L210 262V1Q200 -2 182 -4T142 -7Q99 -7 79
8T59 63V265ZM210 184L59 187V651Q69 654 87 657T127 660Q171 660 190 645T210 589V184Z" />
<glyph unicode="l" horiz-adv-x="276" d="M63 264L213 261V1Q204 -2 186 -4T146 -7Q103 -7 83 8T63 63V264ZM213 183L63 186V651Q72 654 90 657T130 660Q174 660 193 645T213 589V183Z" />
<glyph unicode="m" horiz-adv-x="840" d="M495 331V218H344V312Q344 346 325 361T275 377Q253 377 236 371T208 357V218H57V373Q57 398 68 414T99 445Q131 467 179 481T281 495Q329 495 371 481T444 435Q452 428 459 422T471 407Q481 391 488 372T495 331ZM783
316V218H632V312Q632 346 614 361T564 377Q542 377 522 368T487 346L407 433Q440 458 482 476T586 495Q638 495 683 478T755 421T783 316ZM57 263H208V1Q198 -2 180 -4T140 -7Q97 -7 77 8T57 63V263ZM344 263H495V1Q485 -2 467 -4T427 -7Q384 -7 364 8T344 63V263ZM632
263H783V1Q773 -2 755 -4T715 -7Q672 -7 652 8T632 63V263Z" />
<glyph unicode="n" horiz-adv-x="576" d="M518 311V217H368V306Q368 343 347 360T290 377Q266 377 246 371T208 356V217H57V373Q57 398 68 414T99 445Q131 467 181 481T292 495Q400 495 459 448T518 311ZM57 263H208V1Q198 -2 180 -4T140 -7Q97 -7 77 8T57 63V263ZM368
263H518V1Q508 -2 490 -4T451 -7Q407 -7 388 8T368 63V263Z" />
<glyph unicode="o" horiz-adv-x="579" d="M544 240Q544 162 513 105T424 16T290 -15Q213 -15 156 15T67 103T35 240Q35 319 67 376T156 464T290 495Q366 495 423 464T512 375T544 240ZM289 377Q243 377 216 341T189 240Q189 174 215 139T290 103Q337 103 363 139T390
240Q390 305 363 341T289 377Z" />
<glyph unicode="p" horiz-adv-x="577" d="M296 -15Q259 -15 230 -6T177 15V143Q195 128 218 117T274 105Q328 105 358 139T388 243Q388 291 375 320T337 363T278 377Q256 377 238 372T207 359V53H57V380Q57 405 67 421T98 451Q129 470 175 482T278 495Q356 495
415 469T508 387T542 243Q542 159 510 102T423 15T296 -15ZM140 -187Q97 -187 77 -172T57 -116V92L208 91V-178Q198 -181 180 -184T140 -187Z" />
<glyph unicode="q" horiz-adv-x="578" d="M520 73H370V361Q360 368 344 372T307 377Q271 377 244 362T203 317T188 238Q188 169 218 137T303 104Q330 104 350 112T385 133V8Q367 -2 340 -8T280 -15Q209 -15 154 13T67 97T35 238Q35 324 69 381T163 466T303 495Q358
495 405 482T479 451Q498 439 509 422T520 380V73ZM369 92L520 93V-181Q510 -184 492 -187T452 -190Q409 -190 389 -175T369 -119V92Z" />
<glyph unicode="r" horiz-adv-x="405" d="M208 350V227H57V369Q57 397 71 416T109 452Q142 472 188 483T286 495Q389 495 389 426Q389 409 385 395T373 371Q363 373 349 374T318 376Q288 376 259 369T208 350ZM57 264L208 261V1Q198 -2 180 -4T140 -7Q97 -7 77
8T57 63V264Z" />
<glyph unicode="s" horiz-adv-x="482" d="M449 140Q449 67 394 26T233 -16Q150 -16 97 8T44 79Q44 101 53 116T76 142Q104 125 141 112T227 99Q300 99 300 139Q300 157 287 167T244 183L203 192Q122 209 83 245T43 343Q43 413 100 454T253 496Q301 496 340 487T403
458T426 409Q426 389 418 374T397 349Q386 356 364 363T315 376T265 382Q230 382 210 372T190 343Q190 330 201 321T242 305L281 296Q371 275 410 238T449 140Z" />
<glyph unicode="t" horiz-adv-x="392" d="M59 264H208V158Q208 130 226 118T276 105Q291 105 308 108T338 116Q346 107 352 94T358 64Q358 30 331 8T236 -15Q152 -15 106 23T59 148V264ZM154 354V470H346Q351 461 356 446T361 413Q361 382 347 368T310 354H154ZM208
239H59V598Q68 601 86 604T126 608Q169 608 188 593T208 537V239Z" />
<glyph unicode="u" horiz-adv-x="575" d="M57 188V259H208V189Q208 144 231 124T296 103Q323 103 341 108T368 118V259H518V99Q518 75 509 58T478 28Q446 8 399 -3T295 -15Q225 -15 171 6T87 71T57 188ZM518 214H368V479Q377 482 395 484T435 487Q479 487 498
473T518 417V214ZM208 214H57V479Q67 482 85 484T125 487Q169 487 188 473T208 417V214Z" />
<glyph unicode="v" horiz-adv-x="534" d="M434 491Q465 491 486 477T508 431Q508 413 498 375T471 287T435 185T395 88T359 13Q348 4 324 -2T270 -9Q235 -9 210 0T175 28Q164 49 148 87T114 174T79 274T46 374T22 458Q35 472 56 481T101 491Q133 491 153 478T182
428L226 269Q234 242 242 214T258 162T269 122H274Q297 202 321 294T364 474Q395 491 434 491Z" />
<glyph unicode="w" horiz-adv-x="778" d="M393 288Q382 239 366 186T336 88T313 14Q301 4 280 -2T228 -9Q194 -9 167 1T131 30Q122 50 111 87T87 172T64 271T43 371T26 459Q39 472 59 481T106 491Q137 491 157 477T181 427Q191 358 199 308T213 222T223 165T231
130H235Q240 153 252 200T281 308T315 433Q332 442 350 447T393 453Q424 453 446 443T475 412Q493 352 508 295T535 195T552 130H557Q570 209 584 296T609 472Q640 491 678 491Q709 491 729 478T749 431Q749 416 744 385T730 313T710 228T688 141T666 66T649 14Q637
4 612 -2T557 -9Q482 -9 469 28Q460 54 446 97T418 190T393 288Z" />
<glyph unicode="x" horiz-adv-x="514" d="M212 299L239 302Q275 349 309 394T378 487Q382 488 386 488T393 488Q435 488 459 470T483 424Q483 401 473 383T433 333Q407 302 380 272T325 210L280 189Q246 140 211 91T142 -7Q138 -7 132 -7T122 -8Q78 -8 55 10T31
57Q31 77 40 93T75 139Q109 179 143 219T212 299ZM300 287L334 269Q373 217 412 166T491 63Q486 29 464 10T411 -10Q379 -9 359 9T318 55Q293 91 268 127T216 200L192 217Q150 266 110 314T29 411Q36 445 57 466T108 488Q138 488 154 474T190 433Q217 398 244 361T300
287Z" />
<glyph unicode="y" horiz-adv-x="538" d="M137 119Q121 153 103 199T64 310T22 458Q35 472 55 481T101 491Q132 491 152 478T183 428Q206 355 228 284T275 139H279Q296 184 313 241T345 358T370 474Q385 482 401 486T435 491Q466 491 489 477T512 431Q512 402
504 361T481 273T448 176T409 81T367 -1Q313 -96 267 -142T176 -189Q140 -189 116 -167T87 -110Q109 -92 131 -69T175 -19T213 33Q196 38 178 55T137 119Z" />
<glyph unicode="z" horiz-adv-x="478" d="M127 0H67Q53 12 45 29T36 67Q36 85 45 103T66 136L355 480H408Q422 468 430 451T439 413Q439 395 431 378T409 344L127 0ZM377 480V363H56Q51 373 46 388T41 421Q41 452 55 466T92 480H377ZM109 0V117H435Q440 108 445
93T450 59Q450 28 436 14T399 0H109Z" />
<glyph unicode="{" horiz-adv-x="325" d="M182 268Q211 254 225 225T240 152V36Q240 2 256 -12T295 -32Q297 -39 297 -45T297 -58Q297 -96 277 -113T221 -131Q169 -131 135 -97T101 6V114Q101 160 85 184T34 217Q31 227 29 240T27 268Q27 282 29 295T34 319Q69
328 85 352T101 422V526Q101 595 136 628T224 662Q259 662 278 646T297 589Q297 583 297 577T295 563Q272 559 256 545T240 495V384Q240 340 226 311T182 268Z" />
<glyph unicode="|" horiz-adv-x="275" d="M204 618V-171Q195 -174 179 -176T144 -178Q109 -178 90 -166T70 -115V676Q80 678 96 680T130 683Q166 683 185 671T204 618Z" />
<glyph unicode="}" horiz-adv-x="325" d="M143 268Q114 282 100 311T85 384V495Q85 530 69 544T30 563Q29 571 29 577T28 589Q28 630 47 646T101 662Q154 662 189 629T224 526V422Q224 377 240 353T291 319Q294 309 296 296T298 268Q298 254 296 241T291 217Q256
208 240 184T224 114V6Q224 -62 190 -96T104 -131Q69 -131 49 -114T28 -58Q28 -52 28 -46T30 -32Q53 -27 69 -13T85 36V152Q85 196 99 225T143 268Z" />
<glyph unicode="~" horiz-adv-x="491" d="M322 306Q347 306 360 319T382 348Q419 348 446 325T473 265Q473 217 440 194T358 170Q325 170 294 178T232 196T170 205Q144 205 131 191T110 163Q74 163 47 186T20 247Q20 279 37 300T80 332T134 342Q169 342 201 333T263
315T322 306Z" />
<glyph unicode="&#xa0;" horiz-adv-x="200" />
<glyph unicode="&#xa1;" horiz-adv-x="288" d="M66 -96Q66 -72 67 -31T71 60T78 158T88 245Q96 252 114 255T145 259Q170 259 187 251T209 219Q213 195 216 151T222 52T226 -53T228 -144Q189 -166 142 -166Q107 -166 87 -149T66 -96ZM232 398Q232 360 209 336T144
312Q104 312 81 336T57 398Q57 435 80 459T144 483Q185 483 208 459T232 398Z" />
<glyph unicode="&#xa2;" horiz-adv-x="489" d="M196 60H330V-91Q321 -93 305 -95T270 -98Q232 -98 214 -85T196 -35V60ZM330 402H196V573Q205 576 221 578T256 581Q295 581 312 568T330 518V402ZM316 376Q263 376 225 341T186 239Q186 172 223 139T316 105Q348
105 372 113T414 131Q432 119 441 105T450 69Q450 31 410 8T299 -15Q219 -15 159 13T66 99T33 239Q33 325 69 382T164 467T295 495Q364 495 403 471T443 408Q443 390 435 375T414 350Q396 359 372 367T316 376Z" />
<glyph unicode="&#xa3;" horiz-adv-x="504" d="M366 245H93Q71 245 57 259T42 305Q42 322 47 337T57 362H402Q406 352 411 337T417 305Q417 273 403 259T366 245ZM122 227Q122 250 119 283T111 351T107 413Q107 487 138 533T220 602T332 624Q399 624 433 602T468
540Q468 523 460 506T441 480Q423 491 403 497T355 503Q308 503 282 480T256 405Q256 380 259 346T266 279T269 225Q269 193 260 166T233 118H470Q475 108 480 93T485 60Q485 28 471 14T433 0H100Q76 0 58 19T39 72Q39 81 40 87Q81 106 101 136T122 227Z" />
<glyph unicode="&#xa4;" horiz-adv-x="556" d="M276 95Q219 95 172 118T96 185T68 293Q68 356 96 400T171 467T275 490Q333 490 380 467T455 400T483 293Q483 229 455 185T380 118T276 95ZM135 49Q109 54 90 67T70 101Q70 114 78 129T99 160L145 220L216 155L135
49ZM438 54Q421 54 407 67T380 97L334 155L412 204L497 101Q487 77 472 66T438 54ZM275 195Q311 195 334 220T357 293Q357 339 334 364T275 390Q239 390 217 365T194 293Q194 245 216 220T275 195ZM141 377L56 479Q66 503 82 514T116 526Q133 526 147 513T173 483L219
425L141 377ZM411 360L339 425L420 531Q446 526 465 514T485 480Q485 466 478 451T457 420L411 360Z" />
<glyph unicode="&#xa5;" horiz-adv-x="586" d="M413 292L199 279Q169 326 137 378T78 480T34 568Q46 585 65 598T112 611Q145 611 166 597T206 545L299 369H305Q326 412 341 445T371 513T406 595Q421 602 440 606T476 611Q507 611 527 595T547 548Q547 539 541
521T519 474T477 400T413 292ZM222 177H374V1Q364 -2 345 -4T304 -7Q259 -7 241 9T222 64V177ZM268 260L285 355H527Q531 346 535 334T539 308Q539 283 527 272T497 260H268ZM322 355L335 260H71Q66 267 62 280T58 307Q58 333 69 344T99 355H322ZM497 112H71Q66
119 62 132T58 159Q58 185 69 196T99 208H526Q531 199 535 187T539 160Q539 135 527 124T497 112Z" />
<glyph unicode="&#xa6;" horiz-adv-x="293" d="M204 618V312Q195 310 179 308T144 305Q109 305 90 317T70 369V676Q80 678 96 680T130 683Q166 683 185 671T204 618ZM204 135V-171Q195 -174 179 -176T144 -178Q109 -178 90 -166T70 -115V192Q80 194 96 196T130
199Q166 199 185 187T204 135Z" />
<glyph unicode="&#xa7;" horiz-adv-x="537" d="M485 89Q485 19 426 -22T250 -63Q194 -63 150 -53T80 -21T55 32Q55 54 64 69T87 95Q117 77 155 64T245 51Q294 51 315 62T336 91Q336 108 323 116T277 129L211 141Q132 154 93 189T53 287Q53 352 104 384T240 420L231
345Q213 339 204 324T194 291Q194 277 206 264T246 245L329 228Q406 212 445 181T485 89ZM485 279Q485 250 473 225T440 182T397 157L309 212Q326 228 335 240T344 271Q344 288 330 301T284 320L210 334Q162 343 127 360T74 406T56 478Q56 547 114 585T267 624Q318
624 359 615T426 586T451 538Q451 518 443 503T423 477Q410 485 386 492T333 504T279 510Q244 510 224 501T203 472Q203 457 215 450T254 438L317 428Q401 415 443 378T485 279Z" />
<glyph unicode="&#xa8;" horiz-adv-x="374" d="M161 625Q161 593 140 572T83 550Q50 550 29 571T7 625Q7 656 28 678T83 700Q118 700 139 678T161 625ZM367 625Q367 593 346 572T290 550Q257 550 235 571T213 625Q213 656 235 678T290 700Q325 700 346 678T367 625Z" />
<glyph unicode="&#xa9;" horiz-adv-x="713" d="M39 306Q39 393 78 463T189 575T355 617Q450 617 521 576T633 464T674 306Q674 219 634 150T522 39T355 -2Q260 -2 189 39T79 149T39 306ZM355 535Q287 535 238 505T163 424T136 306Q136 240 162 190T238 111T355
82Q424 82 472 110T547 189T574 306Q574 372 548 423T473 505T355 535ZM390 383Q360 383 338 365T316 310Q316 273 337 254T390 234Q411 234 425 239T450 251Q472 233 472 204Q472 184 445 167T372 149Q327 149 291 168T233 223T211 311Q211 365 236 399T298 451T373
469Q415 469 441 453T467 412Q467 398 462 387T447 367Q437 373 423 378T390 383Z" />
<glyph unicode="&#xaa;" horiz-adv-x="354" d="M166 291Q100 291 60 317T20 394Q20 439 47 463T131 493L215 501V506Q215 528 198 537T149 547Q125 547 101 541T57 526Q50 531 45 542T39 566Q39 582 46 591T68 607Q86 615 112 618T162 622Q229 622 270 595T312
505V357Q312 343 303 333T282 315Q241 291 166 291ZM166 365Q180 365 194 367T216 374V433L164 429Q142 427 130 420T117 398Q117 383 128 374T166 365Z" />
<glyph unicode="&#xab;" horiz-adv-x="551" d="M154 222L281 91Q281 66 264 45T212 24Q192 24 176 35T144 62L44 165Q39 175 35 189T30 219Q30 247 37 264T55 292L202 436Q236 427 253 409T271 368Q271 348 263 333T229 293L154 222ZM391 222L518 91Q518 66 501
45T449 24Q428 24 412 35T381 62L281 165Q275 175 271 189T267 219Q267 247 274 264T292 292L438 436Q473 427 490 409T507 368Q507 348 499 333T465 293L391 222Z" />
<glyph unicode="&#xac;" horiz-adv-x="531" d="M87 434H429Q460 434 478 417T496 367V182Q487 179 468 177T431 174Q394 174 375 187T356 242V318H49Q44 328 40 343T35 375Q35 406 49 420T87 434Z" />
<glyph unicode="&#xad;" horiz-adv-x="362" d="M271 195H52Q45 205 40 221T35 255Q35 287 50 302T91 317H310Q315 308 320 292T326 258Q326 225 311 210T271 195Z" />
<glyph unicode="&#xae;" horiz-adv-x="619" d="M42 373Q42 446 75 504T168 598T309 633Q388 633 448 598T543 505T577 373Q577 301 543 242T449 149T309 114Q229 114 169 148T75 242T42 373ZM124 373Q124 318 146 276T210 210T309 186Q366 186 407 210T470 276T492
373Q492 428 470 471T407 538T309 563Q252 563 211 539T147 471T124 373ZM301 339H288V262Q282 261 273 260T252 259Q236 259 227 265T218 289V476Q218 489 236 495Q250 499 267 501T302 503Q355 503 382 481T410 420Q410 395 397 378T366 352L417 284Q413 272
403 265T379 258Q363 258 354 265T335 286L301 339ZM288 390H306Q340 390 340 421Q340 436 331 442T304 449Q299 449 295 449T288 448V390Z" />
<glyph unicode="&#xaf;" horiz-adv-x="356" d="M290 565H32Q28 575 23 590T17 621Q17 654 31 667T67 680H324Q331 671 335 656T339 624Q339 591 326 578T290 565Z" />
<glyph unicode="&#xb0;" horiz-adv-x="361" d="M340 478Q340 433 319 400T262 350T181 333Q112 333 67 371T21 478Q21 524 42 556T99 605T181 622Q226 622 262 605T319 556T340 478ZM181 534Q160 534 145 521T129 478Q129 449 144 435T181 420Q202 420 217 434T232
478Q232 508 217 521T181 534Z" />
<glyph unicode="&#xb1;" horiz-adv-x="546" d="M437 315H68Q62 325 58 339T53 372Q53 404 68 419T109 434H477Q482 425 487 409T492 375Q492 342 477 329T437 315ZM437 0H68Q62 10 58 24T53 57Q53 90 68 104T109 119H477Q482 110 487 94T492 60Q492 27 477 14T437
0ZM343 506V182Q333 180 315 177T280 174Q244 174 225 187T206 239V563Q216 565 233 568T269 571Q304 571 323 558T343 506Z" />
<glyph unicode="&#xb2;" horiz-adv-x="279" d="M125 700Q183 700 216 672T249 596Q249 565 231 537T178 482L132 445H246Q249 439 252 430T255 409Q255 390 247 382T222 373H44Q35 380 29 391T22 416Q22 433 26 444T37 462L113 529Q141 554 150 567T159 593Q159
609 148 618T117 627Q96 627 80 621T53 606Q45 613 39 623T33 648Q33 673 58 686T125 700Z" />
<glyph unicode="&#xb3;" horiz-adv-x="283" d="M77 571H125Q142 571 151 577T160 598Q160 612 148 619T113 627Q93 627 76 622T46 609Q36 617 30 627T24 650Q24 675 52 688T126 701Q186 701 218 675T251 607Q251 585 238 567T207 540Q228 531 242 512T257 462Q257
416 221 390T126 364Q74 364 45 380T15 420Q15 434 22 445T40 462Q55 452 73 445T116 438Q141 438 154 446T167 470Q167 485 157 493T126 501H77Q73 507 70 516T67 536Q67 559 77 571Z" />
<glyph unicode="&#xb4;" horiz-adv-x="298" d="M79 629L179 738Q225 738 248 718T271 673Q271 652 262 638T231 606L137 525Q98 525 78 544T58 585Q58 596 62 606T79 629Z" />
<glyph unicode="&#xb5;" horiz-adv-x="576" d="M57 299H192L190 63Q197 13 202 -31T208 -124V-165Q197 -171 180 -175T141 -179Q97 -179 77 -164T57 -108V299ZM145 164V242L208 259V189Q208 144 231 124T297 103Q323 103 341 108T368 118V259H519V99Q519 75 509
58T479 28Q452 10 413 -2T318 -15Q252 -15 214 8T161 72T145 164ZM519 214H368V479Q378 482 396 484T436 487Q479 487 499 473T519 417V214ZM208 214H57V479Q67 482 85 484T125 487Q169 487 188 473T208 417V214Z" />
<glyph unicode="&#xb6;" horiz-adv-x="527" d="M244 613H385Q424 613 446 600T468 542V-69Q460 -71 441 -74T401 -77Q362 -77 340 -64T318 -7V486H249V238Q249 225 235 217T188 208Q146 208 107 229T42 293T16 403Q16 474 48 520T132 590T244 613Z" />
<glyph unicode="&#xb7;" horiz-adv-x="217" d="M21 267Q21 304 45 330T109 356Q149 356 172 330T196 267Q196 229 173 204T109 178Q69 178 45 203T21 267Z" />
<glyph unicode="&#xb8;" horiz-adv-x="195" d="M41 4L123 33Q159 13 173 -18T187 -84Q187 -135 156 -167T69 -199Q31 -199 8 -181T-15 -129Q-15 -113 -11 -101H0Q33 -101 47 -86T61 -48Q61 -36 56 -22T41 4Z" />
<glyph unicode="&#xb9;" horiz-adv-x="220" d="M86 410V597L41 581Q29 587 19 599T9 630Q9 646 17 656T39 671L112 699H127Q149 699 162 686T175 649V374Q169 373 158 371T134 368Q111 368 99 376T86 410Z" />
<glyph unicode="&#xba;" horiz-adv-x="392" d="M358 457Q358 377 313 335T194 292Q120 292 75 336T29 458Q29 535 75 578T194 622Q267 622 312 578T358 457ZM194 543Q165 543 148 521T131 458Q131 416 148 394T194 371Q223 371 239 393T256 457Q256 498 239 520T194 543Z" />
<glyph unicode="&#xbb;" horiz-adv-x="551" d="M397 238L270 368Q270 394 287 415T339 436Q359 436 375 425T407 398L507 294Q513 285 517 271T521 241Q521 212 514 195T496 168L349 24Q316 34 299 52T281 91Q281 112 289 127T322 166L397 238ZM161 238L34 368Q34
394 51 415T103 436Q123 436 139 425T171 398L271 294Q277 285 281 271T285 241Q285 212 278 195T259 168L113 24Q80 34 62 52T44 91Q44 112 52 127T86 166L161 238Z" />
<glyph unicode="&#xbc;" horiz-adv-x="624" d="M84 330V517L39 501Q27 507 17 519T7 550Q7 566 15 576T37 591L110 619H125Q147 619 160 606T173 569V294Q167 293 156 291T132 288Q109 288 97 296T84 330ZM564 277V135H608Q611 130 613 121T616 100Q616 81 607
73T585 64H352Q340 69 332 81T324 110Q324 122 327 132T337 152L456 316Q465 318 477 320T503 323Q525 323 544 313T564 277ZM482 135V178Q482 188 482 203T483 236L420 135H482ZM479 36V103H564V1Q558 0 547 -2T524 -4Q503 -4 491 4T479 36ZM93 98L448 615Q476
612 494 600T513 569Q513 555 506 542T488 511L134 -7Q105 -2 88 9T69 40Q69 54 75 67T93 98Z" />
<glyph unicode="&#xbd;" horiz-adv-x="633" d="M84 330V517L39 501Q27 507 17 519T7 550Q7 566 15 576T37 591L110 619H125Q147 619 160 606T173 569V294Q167 293 156 291T132 288Q109 288 97 296T84 330ZM480 329Q538 329 571 301T604 225Q604 194 586 166T533
111L487 74H601Q604 68 607 59T610 38Q610 19 602 11T577 2H399Q390 9 384 20T377 45Q377 62 381 73T392 91L468 158Q496 183 505 196T514 222Q514 238 503 247T472 256Q451 256 435 250T408 235Q400 242 394 252T388 277Q388 302 413 315T480 329ZM93 98L448 615Q476
612 494 600T513 569Q513 555 506 542T488 511L134 -7Q105 -2 88 9T69 40Q69 54 75 67T93 98Z" />
<glyph unicode="&#xbe;" horiz-adv-x="678" d="M77 494H125Q142 494 151 500T160 521Q160 535 148 542T113 550Q93 550 76 545T46 532Q36 540 30 550T24 573Q24 598 52 611T126 624Q186 624 218 598T251 530Q251 508 238 490T207 463Q228 454 242 435T257 385Q257
339 221 313T126 287Q74 287 45 303T15 343Q15 357 22 368T40 385Q55 375 73 368T116 361Q141 361 154 369T167 393Q167 408 157 416T126 424H77Q73 430 70 439T67 459Q67 482 77 494ZM618 277V135H662Q665 130 667 121T670 100Q670 81 661 73T639 64H406Q394 69
386 81T378 110Q378 122 381 132T391 152L510 316Q519 318 531 320T557 323Q579 323 598 313T618 277ZM536 135V178Q536 188 536 203T537 236L474 135H536ZM533 36V103H618V1Q612 0 601 -2T578 -4Q557 -4 545 4T533 36ZM147 98L502 615Q530 612 548 600T567 569Q567
555 560 542T542 511L188 -7Q159 -2 142 9T123 40Q123 54 129 67T147 98Z" />
<glyph unicode="&#xbf;" horiz-adv-x="490" d="M249 239L349 260Q365 250 378 230T391 181Q391 154 376 140T332 118L256 100Q221 90 204 74T187 28Q187 2 209 -18T282 -38Q323 -38 360 -28T419 -1Q435 -13 445 -30T456 -70Q456 -117 402 -141T263 -166Q187 -166
135 -141T55 -72T27 27Q27 114 83 165T249 239ZM378 398Q378 360 354 336T290 312Q250 312 227 336T203 398Q203 435 226 459T290 483Q330 483 354 459T378 398Z" />
<glyph unicode="&#xc0;" horiz-adv-x="619" d="M315 477H310Q299 446 286 408T259 328T233 244L214 152Q208 132 203 112T192 72T181 34T172 0Q160 -3 146 -6T112 -10Q69 -10 47 5T25 49Q25 62 28 75T37 105Q46 138 62 188T98 296T138 412T176 516T203 591Q219
600 249 607T311 615Q354 615 388 603T432 562Q452 509 474 440T518 295T562 148T600 19Q589 7 568 -1T517 -10Q475 -10 458 5T432 51L401 161L383 248Q371 292 359 333T335 412T315 477ZM147 134L207 254H439L459 134H147ZM249 676L157 745Q156 749 156 755T156
766Q156 798 174 816T220 835Q253 835 286 802L372 714Q368 683 350 668T309 652Q290 652 277 659T249 676Z" />
<glyph unicode="&#xc1;" horiz-adv-x="619" d="M315 477H310Q299 446 286 408T259 328T233 244L214 152Q208 132 203 112T192 72T181 34T172 0Q160 -3 146 -6T112 -10Q69 -10 47 5T25 49Q25 62 28 75T37 105Q46 138 62 188T98 296T138 412T176 516T203 591Q219
600 249 607T311 615Q354 615 388 603T432 562Q452 509 474 440T518 295T562 148T600 19Q589 7 568 -1T517 -10Q475 -10 458 5T432 51L401 161L383 248Q371 292 359 333T335 412T315 477ZM147 134L207 254H439L459 134H147ZM274 749L385 840Q423 840 444 822T465
777Q465 759 456 744T422 713L326 651Q290 652 272 668T253 705Q253 717 257 727T274 749Z" />
<glyph unicode="&#xc2;" horiz-adv-x="619" d="M318 738Q296 717 272 694T225 651Q197 652 178 667T159 708Q159 727 168 740T202 773L237 803Q285 840 320 840Q344 840 363 831T402 801L484 718Q484 686 467 670T422 654Q404 654 389 665T351 701L318 738ZM315
477H310Q299 446 286 408T259 328T233 244L214 152Q208 132 203 112T192 72T181 34T172 0Q160 -3 146 -6T112 -10Q69 -10 47 5T25 49Q25 62 28 75T37 105Q46 138 62 188T98 296T138 412T176 516T203 591Q219 600 249 607T311 615Q354 615 388 603T432 562Q452 509
474 440T518 295T562 148T600 19Q589 7 568 -1T517 -10Q475 -10 458 5T432 51L401 161L383 248Q371 292 359 333T335 412T315 477ZM147 134L207 254H439L459 134H147Z" />
<glyph unicode="&#xc3;" horiz-adv-x="619" d="M315 477H310Q299 446 286 408T259 328T233 244L214 152Q208 132 203 112T192 72T181 34T172 0Q160 -3 146 -6T112 -10Q69 -10 47 5T25 49Q25 62 28 75T37 105Q46 138 62 188T98 296T138 412T176 516T203 591Q219
600 249 607T311 615Q354 615 388 603T432 562Q452 509 474 440T518 295T562 148T600 19Q589 7 568 -1T517 -10Q475 -10 458 5T432 51L401 161L383 248Q371 292 359 333T335 412T315 477ZM147 134L207 254H439L459 134H147ZM230 831Q258 831 284 824T331 809T369
801Q390 801 401 813T417 837H422Q451 837 472 818T493 766Q493 725 467 705T400 684Q369 684 344 692T299 707T261 715Q240 715 230 703T213 679H209Q180 679 159 698T137 750Q137 777 151 795T186 822T230 831Z" />
<glyph unicode="&#xc4;" horiz-adv-x="619" d="M315 477H310Q299 446 286 408T259 328T233 244L214 152Q208 132 203 112T192 72T181 34T172 0Q160 -3 146 -6T112 -10Q69 -10 47 5T25 49Q25 62 28 75T37 105Q46 138 62 188T98 296T138 412T176 516T203 591Q219
600 249 607T311 615Q354 615 388 603T432 562Q452 509 474 440T518 295T562 148T600 19Q589 7 568 -1T517 -10Q475 -10 458 5T432 51L401 161L383 248Q371 292 359 333T335 412T315 477ZM147 134L207 254H439L459 134H147ZM286 746Q286 714 265 693T208 671Q175
671 154 692T132 746Q132 777 153 799T208 821Q243 821 264 799T286 746ZM492 746Q492 714 471 693T415 671Q382 671 360 692T338 746Q338 777 360 799T415 821Q450 821 471 799T492 746Z" />
<glyph unicode="&#xc5;" horiz-adv-x="619" d="M315 477H310Q299 446 286 408T259 328T233 244L214 152Q208 132 203 112T192 72T181 34T172 0Q160 -3 146 -6T112 -10Q69 -10 47 5T25 49Q25 62 28 75T37 105Q46 138 62 188T98 296T138 412T176 516T203 591Q219
600 249 607T311 615Q354 615 388 603T432 562Q452 509 474 440T518 295T562 148T600 19Q589 7 568 -1T517 -10Q475 -10 458 5T432 51L401 161L383 248Q371 292 359 333T335 412T315 477ZM147 134L207 254H439L459 134H147ZM189 752Q189 796 223 826T315 857Q377
857 411 827T446 752Q446 708 412 678T315 648Q257 648 223 678T189 752ZM281 752Q281 737 291 728T316 719Q332 719 342 727T353 752Q353 767 343 776T316 785Q302 785 292 776T281 752Z" />
<glyph unicode="&#xc6;" horiz-adv-x="868" d="M499 477H389L266 215L248 177L166 1Q154 -3 142 -6T110 -10Q69 -10 50 6T30 49Q30 62 34 75T45 106Q60 137 83 185T135 289T192 402T246 507T288 585Q301 595 326 603T382 611Q402 611 426 607T471 592T499 562V477ZM148
134L208 254H438L458 134H148ZM395 523H545V6Q536 4 517 1T477 -2Q439 -2 417 20T395 80V523ZM477 248V370H778Q785 360 790 345T795 311Q795 278 781 263T741 248H477ZM477 -2V121H811Q817 111 822 95T828 60Q828 28 814 13T774 -2H477ZM439 484V568Q452 585 471
595T515 606H807Q813 597 818 582T823 548Q823 515 809 500T770 484H439Z" />
<glyph unicode="&#xc7;" horiz-adv-x="575" d="M539 523Q539 501 527 483T500 456Q475 473 444 486T369 499Q316 499 278 476T219 409T198 303Q198 207 246 158T377 109Q421 109 451 120T508 147Q523 136 532 118T542 77Q542 57 532 40T495 11Q476 1 442 -8T357
-17Q269 -17 197 17T82 122T39 303Q39 407 80 478T192 587T348 624Q407 624 450 611T516 574T539 523ZM289 4L371 33Q407 13 421 -18T435 -84Q435 -135 404 -167T317 -199Q279 -199 256 -181T233 -129Q233 -113 237 -101H248Q281 -101 295 -86T309 -48Q309 -36
304 -22T289 4Z" />
<glyph unicode="&#xc8;" horiz-adv-x="547" d="M73 426H224V6Q215 4 196 1T156 -2Q118 -2 96 20T73 80V426ZM224 180H73V524Q73 562 95 584T156 606Q177 606 196 603T224 598V180ZM156 248V370H457Q464 360 468 345T473 311Q473 278 459 263T420 248H156ZM156
-2V121H490Q496 111 501 95T506 60Q506 28 492 13T453 -2H156ZM156 484V606H486Q492 597 497 582T502 548Q502 515 488 500T448 484H156ZM247 676L155 745Q154 749 154 755T154 766Q154 798 172 816T218 835Q251 835 284 802L370 714Q366 683 348 668T307 652Q288
652 275 659T247 676Z" />
<glyph unicode="&#xc9;" horiz-adv-x="547" d="M73 426H224V6Q215 4 196 1T156 -2Q118 -2 96 20T73 80V426ZM224 180H73V524Q73 562 95 584T156 606Q177 606 196 603T224 598V180ZM156 248V370H457Q464 360 468 345T473 311Q473 278 459 263T420 248H156ZM156
-2V121H490Q496 111 501 95T506 60Q506 28 492 13T453 -2H156ZM156 484V606H486Q492 597 497 582T502 548Q502 515 488 500T448 484H156ZM263 749L374 840Q412 840 433 822T454 777Q454 759 445 744T411 713L315 651Q279 652 261 668T242 705Q242 717 246 727T263
749Z" />
<glyph unicode="&#xca;" horiz-adv-x="547" d="M73 426H224V6Q215 4 196 1T156 -2Q118 -2 96 20T73 80V426ZM224 180H73V524Q73 562 95 584T156 606Q177 606 196 603T224 598V180ZM156 248V370H457Q464 360 468 345T473 311Q473 278 459 263T420 248H156ZM156
-2V121H490Q496 111 501 95T506 60Q506 28 492 13T453 -2H156ZM156 484V606H486Q492 597 497 582T502 548Q502 515 488 500T448 484H156ZM294 738Q272 717 248 694T201 651Q173 652 154 667T135 708Q135 727 144 740T177 773L213 803Q261 840 296 840Q320 840 339
831T378 801L459 718Q459 686 443 670T398 654Q380 654 365 665T327 701L294 738Z" />
<glyph unicode="&#xcb;" horiz-adv-x="547" d="M73 426H224V6Q215 4 196 1T156 -2Q118 -2 96 20T73 80V426ZM224 180H73V524Q73 562 95 584T156 606Q177 606 196 603T224 598V180ZM156 248V370H457Q464 360 468 345T473 311Q473 278 459 263T420 248H156ZM156
-2V121H490Q496 111 501 95T506 60Q506 28 492 13T453 -2H156ZM156 484V606H486Q492 597 497 582T502 548Q502 515 488 500T448 484H156ZM265 744Q265 712 244 691T187 669Q154 669 133 690T111 744Q111 775 132 797T187 819Q222 819 243 797T265 744ZM471 744Q471
712 450 691T394 669Q361 669 339 690T317 744Q317 775 339 797T394 819Q429 819 450 797T471 744Z" />
<glyph unicode="&#xcc;" horiz-adv-x="296" d="M70 425H225V1Q215 -2 195 -4T154 -7Q108 -7 89 9T70 66V425ZM225 229H70V608Q81 610 101 613T142 616Q186 616 205 601T225 543V229ZM333 676L241 745Q240 749 240 755T240 766Q240 798 258 816T304 835Q337 835
370 802L456 714Q452 683 434 668T393 652Q374 652 361 659T333 676Z" />
<glyph unicode="&#xcd;" horiz-adv-x="296" d="M70 425H225V1Q215 -2 195 -4T154 -7Q108 -7 89 9T70 66V425ZM225 229H70V608Q81 610 101 613T142 616Q186 616 205 601T225 543V229ZM103 749L214 840Q252 840 273 822T294 777Q294 759 285 744T251 713L155 651Q119
652 101 668T82 705Q82 717 86 727T103 749Z" />
<glyph unicode="&#xce;" horiz-adv-x="296" d="M70 425H225V1Q215 -2 195 -4T154 -7Q108 -7 89 9T70 66V425ZM225 229H70V608Q81 610 101 613T142 616Q186 616 205 601T225 543V229ZM404 738Q382 717 358 694T311 651Q283 652 264 667T245 708Q245 727 254 740T287
773L323 803Q371 840 406 840Q430 840 449 831T488 801L569 718Q569 686 553 670T508 654Q490 654 475 665T437 701L404 738Z" />
<glyph unicode="&#xcf;" horiz-adv-x="296" d="M70 425H225V1Q215 -2 195 -4T154 -7Q108 -7 89 9T70 66V425ZM225 229H70V608Q81 610 101 613T142 616Q186 616 205 601T225 543V229ZM373 744Q373 712 352 691T295 669Q262 669 241 690T219 744Q219 775 240 797T295
819Q330 819 351 797T373 744ZM579 744Q579 712 558 691T502 669Q469 669 447 690T425 744Q425 775 447 797T502 819Q537 819 558 797T579 744Z" />
<glyph unicode="&#xd0;" horiz-adv-x="696" d="M187 366V245H327Q352 245 366 260T381 308Q381 326 376 341T365 366H187ZM210 245V366H72Q47 366 33 351T18 304Q18 285 23 270T34 245H210ZM498 303Q498 207 451 159T325 110Q309 110 290 112T257 116V492Q273
494 289 495T324 497Q375 497 414 476T475 412T498 303ZM657 306Q657 413 614 483T494 587T315 622Q276 622 230 618T144 601Q126 594 115 583T103 552V75Q103 27 155 8Q194 -6 242 -10T324 -15Q425 -15 499 20T615 127T657 306Z" />
<glyph unicode="&#xd1;" horiz-adv-x="675" d="M70 430L211 431Q215 388 217 346T219 265T219 190V0Q211 -2 191 -4T150 -7Q106 -7 88 8T70 63V430ZM605 180L464 178Q457 251 456 316T455 441V608Q465 610 484 613T525 616Q569 616 587 601T605 546V180ZM605 229V328V19Q592
7 568 0T512 -8Q477 -8 448 3T399 52L280 280Q269 302 259 323T239 367T219 412L70 379V580Q83 597 109 606T164 615Q198 615 228 604T277 555L397 328Q408 306 418 284T439 240T458 195L605 229ZM247 831Q275 831 301 824T348 809T386 801Q407 801 418 813T434
837H439Q468 837 489 818T510 766Q510 725 484 705T417 684Q386 684 361 692T316 707T278 715Q257 715 247 703T230 679H226Q197 679 176 698T154 750Q154 777 168 795T203 822T247 831Z" />
<glyph unicode="&#xd2;" horiz-adv-x="700" d="M661 304Q661 200 620 129T509 20T349 -17Q260 -17 190 20T80 128T39 304Q39 408 80 479T192 587T349 624Q437 624 507 588T619 480T661 304ZM502 304Q502 399 461 449T349 499Q282 499 240 450T198 304Q198 207
239 158T350 109Q419 109 460 158T502 304ZM291 676L199 745Q198 749 198 755T198 766Q198 798 216 816T262 835Q295 835 328 802L414 714Q410 683 392 668T351 652Q332 652 319 659T291 676Z" />
<glyph unicode="&#xd3;" horiz-adv-x="700" d="M661 304Q661 200 620 129T509 20T349 -17Q260 -17 190 20T80 128T39 304Q39 408 80 479T192 587T349 624Q437 624 507 588T619 480T661 304ZM502 304Q502 399 461 449T349 499Q282 499 240 450T198 304Q198 207
239 158T350 109Q419 109 460 158T502 304ZM319 749L430 840Q468 840 489 822T510 777Q510 759 501 744T467 713L371 651Q335 652 317 668T298 705Q298 717 302 727T319 749Z" />
<glyph unicode="&#xd4;" horiz-adv-x="700" d="M661 304Q661 200 620 129T509 20T349 -17Q260 -17 190 20T80 128T39 304Q39 408 80 479T192 587T349 624Q437 624 507 588T619 480T661 304ZM502 304Q502 399 461 449T349 499Q282 499 240 450T198 304Q198 207
239 158T350 109Q419 109 460 158T502 304ZM352 738Q330 717 306 694T259 651Q231 652 212 667T193 708Q193 727 202 740T235 773L271 803Q319 840 354 840Q378 840 397 831T436 801L517 718Q517 686 501 670T456 654Q438 654 423 665T385 701L352 738Z" />
<glyph unicode="&#xd5;" horiz-adv-x="700" d="M661 304Q661 200 620 129T509 20T349 -17Q260 -17 190 20T80 128T39 304Q39 408 80 479T192 587T349 624Q437 624 507 588T619 480T661 304ZM502 304Q502 399 461 449T349 499Q282 499 240 450T198 304Q198 207
239 158T350 109Q419 109 460 158T502 304ZM266 831Q294 831 320 824T367 809T405 801Q426 801 437 813T453 837H458Q487 837 508 818T529 766Q529 725 503 705T436 684Q405 684 380 692T335 707T297 715Q276 715 266 703T249 679H245Q216 679 195 698T173 750Q173
777 187 795T222 822T266 831Z" />
<glyph unicode="&#xd6;" horiz-adv-x="700" d="M661 304Q661 200 620 129T509 20T349 -17Q260 -17 190 20T80 128T39 304Q39 408 80 479T192 587T349 624Q437 624 507 588T619 480T661 304ZM502 304Q502 399 461 449T349 499Q282 499 240 450T198 304Q198 207
239 158T350 109Q419 109 460 158T502 304ZM322 744Q322 712 301 691T244 669Q211 669 190 690T168 744Q168 775 189 797T244 819Q279 819 300 797T322 744ZM528 744Q528 712 507 691T451 669Q418 669 396 690T374 744Q374 775 396 797T451 819Q486 819 507 797T528
744Z" />
<glyph unicode="&#xd7;" horiz-adv-x="502" d="M321 309L467 143Q459 112 438 94T388 75Q377 75 364 81T340 100L237 222L190 263L35 424Q42 451 64 473T113 496Q126 496 136 491T156 475L278 342L321 309ZM427 376L315 259L259 216L121 69Q86 75 63 97T39 143Q39
153 45 164T64 187L180 309L232 343L382 499Q408 491 429 470T451 422Q451 411 446 400T427 376Z" />
<glyph unicode="&#xd8;" horiz-adv-x="700" d="M191 70L107 -18Q76 -10 57 6T38 46Q38 62 47 76T77 110L109 141L191 70ZM616 498L586 469L518 553L588 625Q619 617 637 600T656 562Q656 546 645 530T616 498ZM524 409L231 105L183 205L454 490L524 409ZM661 304Q661
200 620 129T509 20T349 -17Q262 -17 192 21T80 132T39 304Q39 408 80 479T192 587T349 624Q435 624 506 586T619 477T661 304ZM506 304Q506 399 463 449T349 499Q282 499 238 450T194 304Q194 208 237 159T350 109Q419 109 462 158T506 304Z" />
<glyph unicode="&#xd9;" horiz-adv-x="661" d="M330 -17Q248 -17 189 12T99 95T68 219V285H222V223Q222 169 252 139T330 109Q377 109 407 139T438 223V285H593V219Q593 148 562 95T472 13T330 -17ZM222 255H68V608Q78 610 98 613T139 616Q183 616 202 601T222
543V255ZM593 253H438V608Q449 610 469 613T510 616Q554 616 573 601T593 543V253ZM257 676L165 745Q164 749 164 755T164 766Q164 798 182 816T228 835Q261 835 294 802L380 714Q376 683 358 668T317 652Q298 652 285 659T257 676Z" />
<glyph unicode="&#xda;" horiz-adv-x="661" d="M330 -17Q248 -17 189 12T99 95T68 219V285H222V223Q222 169 252 139T330 109Q377 109 407 139T438 223V285H593V219Q593 148 562 95T472 13T330 -17ZM222 255H68V608Q78 610 98 613T139 616Q183 616 202 601T222
543V255ZM593 253H438V608Q449 610 469 613T510 616Q554 616 573 601T593 543V253ZM294 749L405 840Q443 840 464 822T485 777Q485 759 476 744T442 713L346 651Q310 652 292 668T273 705Q273 717 277 727T294 749Z" />
<glyph unicode="&#xdb;" horiz-adv-x="661" d="M330 -17Q248 -17 189 12T99 95T68 219V285H222V223Q222 169 252 139T330 109Q377 109 407 139T438 223V285H593V219Q593 148 562 95T472 13T330 -17ZM222 255H68V608Q78 610 98 613T139 616Q183 616 202 601T222
543V255ZM593 253H438V608Q449 610 469 613T510 616Q554 616 573 601T593 543V253ZM335 738Q313 717 289 694T242 651Q214 652 195 667T176 708Q176 727 185 740T218 773L254 803Q302 840 337 840Q361 840 380 831T419 801L500 718Q500 686 484 670T439 654Q421
654 406 665T368 701L335 738Z" />
<glyph unicode="&#xdc;" horiz-adv-x="661" d="M330 -17Q248 -17 189 12T99 95T68 219V285H222V223Q222 169 252 139T330 109Q377 109 407 139T438 223V285H593V219Q593 148 562 95T472 13T330 -17ZM222 255H68V608Q78 610 98 613T139 616Q183 616 202 601T222
543V255ZM593 253H438V608Q449 610 469 613T510 616Q554 616 573 601T593 543V253ZM302 744Q302 712 281 691T224 669Q191 669 170 690T148 744Q148 775 169 797T224 819Q259 819 280 797T302 744ZM508 744Q508 712 487 691T431 669Q398 669 376 690T354 744Q354
775 376 797T431 819Q466 819 487 797T508 744Z" />
<glyph unicode="&#xdd;" horiz-adv-x="569" d="M363 194H225Q199 233 169 281T108 380T51 479T8 566Q20 582 40 596T89 610Q124 610 145 596T187 542Q189 537 200 517T225 469T253 415T277 367T290 343H296Q318 388 336 427T371 506T408 594Q424 602 443 606T480
610Q511 610 532 594T554 545Q554 533 545 510T515 447T457 346T363 194ZM218 250H369V1Q360 -2 340 -4T299 -7Q254 -7 236 9T218 64V250ZM239 749L350 840Q388 840 409 822T430 777Q430 759 421 744T387 713L291 651Q255 652 237 668T218 705Q218 717 222 727T239
749Z" />
<glyph unicode="&#xde;" horiz-adv-x="577" d="M220 218V395H285Q334 395 361 374T388 307Q388 262 361 240T285 218H220ZM66 517V96H304Q425 96 485 154T546 307Q546 403 486 460T304 517H66ZM221 167H66V66Q66 26 85 10T150 -7Q171 -7 191 -5T221 1V167ZM66
418H221V543Q221 586 202 601T138 616Q118 616 98 613T66 608V418Z" />
<glyph unicode="&#xdf;" horiz-adv-x="614" d="M210 284H60V459Q60 533 91 581T176 653T295 677Q365 677 418 651T501 576T531 459Q531 414 496 397L460 379Q444 371 436 362T428 340Q428 328 436 319T461 301Q502 280 528 258T568 208T581 142Q581 65 530 24T398
-17Q339 -17 303 2T267 56Q267 77 276 92T299 116Q314 107 331 101T371 94Q397 94 412 106T427 141Q427 160 416 173T378 201Q326 228 300 260T274 342Q274 382 298 411T366 458L381 464Q381 503 358 528T296 554Q259 554 235 531T210 458V284ZM60 314H210V0Q201
-2 183 -5T143 -8Q100 -8 80 7T60 63V314Z" />
<glyph unicode="&#xe0;" horiz-adv-x="534" d="M256 -16Q153 -16 92 24T31 143Q31 211 73 247T198 293L332 307V318Q332 352 306 367T230 382Q192 382 156 373T90 351Q78 360 70 376T61 411Q61 454 107 473Q136 484 174 489T249 495Q353 495 415 452T478 317V90Q478
65 465 50T432 23Q402 5 358 -5T256 -16ZM256 96Q278 96 300 100T333 112V206L249 198Q216 196 197 184T177 148Q177 125 195 111T256 96ZM211 551L114 643Q113 647 113 654T112 664Q112 697 131 715T177 733Q195 733 211 726T243 701L332 589Q329 558 310 543T269
527Q250 527 237 533T211 551Z" />
<glyph unicode="&#xe1;" horiz-adv-x="534" d="M256 -16Q153 -16 92 24T31 143Q31 211 73 247T198 293L332 307V318Q332 352 306 367T230 382Q192 382 156 373T90 351Q78 360 70 376T61 411Q61 454 107 473Q136 484 174 489T249 495Q353 495 415 452T478 317V90Q478
65 465 50T432 23Q402 5 358 -5T256 -16ZM256 96Q278 96 300 100T333 112V206L249 198Q216 196 197 184T177 148Q177 125 195 111T256 96ZM219 629L319 738Q365 738 388 718T411 673Q411 652 402 638T371 606L277 525Q238 525 218 544T198 585Q198 596 202 606T219
629Z" />
<glyph unicode="&#xe2;" horiz-adv-x="534" d="M256 -16Q153 -16 92 24T31 143Q31 211 73 247T198 293L332 307V318Q332 352 306 367T230 382Q192 382 156 373T90 351Q78 360 70 376T61 411Q61 454 107 473Q136 484 174 489T249 495Q353 495 415 452T478 317V90Q478
65 465 50T432 23Q402 5 358 -5T256 -16ZM256 96Q278 96 300 100T333 112V206L249 198Q216 196 197 184T177 148Q177 125 195 111T256 96ZM309 569L264 624Q239 595 221 576T182 531Q147 531 127 547T106 588Q106 606 116 619T145 652L185 693Q203 710 222 720T266
731Q290 731 310 722T354 683L428 593Q428 568 414 551T369 533Q351 533 338 543T309 569Z" />
<glyph unicode="&#xe3;" horiz-adv-x="534" d="M256 -16Q153 -16 92 24T31 143Q31 211 73 247T198 293L332 307V318Q332 352 306 367T230 382Q192 382 156 373T90 351Q78 360 70 376T61 411Q61 454 107 473Q136 484 174 489T249 495Q353 495 415 452T478 317V90Q478
65 465 50T432 23Q402 5 358 -5T256 -16ZM256 96Q278 96 300 100T333 112V206L249 198Q216 196 197 184T177 148Q177 125 195 111T256 96ZM179 701Q207 701 233 694T280 679T318 671Q339 671 350 683T366 707H371Q400 707 421 688T442 636Q442 595 416 575T349
554Q318 554 293 562T248 577T210 585Q189 585 179 573T162 549H158Q129 549 108 568T86 620Q86 647 100 665T135 692T179 701Z" />
<glyph unicode="&#xe4;" horiz-adv-x="534" d="M256 -16Q153 -16 92 24T31 143Q31 211 73 247T198 293L332 307V318Q332 352 306 367T230 382Q192 382 156 373T90 351Q78 360 70 376T61 411Q61 454 107 473Q136 484 174 489T249 495Q353 495 415 452T478 317V90Q478
65 465 50T432 23Q402 5 358 -5T256 -16ZM256 96Q278 96 300 100T333 112V206L249 198Q216 196 197 184T177 148Q177 125 195 111T256 96ZM243 880Q243 848 222 827T165 805Q132 805 111 826T89 880Q89 911 110 933T165 955Q200 955 221 933T243 880ZM449 880Q449
848 428 827T372 805Q339 805 317 826T295 880Q295 911 317 933T372 955Q407 955 428 933T449 880Z" />
<glyph unicode="&#xe5;" horiz-adv-x="534" d="M256 -16Q153 -16 92 24T31 143Q31 211 73 247T198 293L332 307V318Q332 352 306 367T230 382Q192 382 156 373T90 351Q78 360 70 376T61 411Q61 454 107 473Q136 484 174 489T249 495Q353 495 415 452T478 317V90Q478
65 465 50T432 23Q402 5 358 -5T256 -16ZM256 96Q278 96 300 100T333 112V206L249 198Q216 196 197 184T177 148Q177 125 195 111T256 96ZM138 635Q138 680 172 711T264 743Q326 743 360 712T394 635Q394 590 360 559T264 528Q206 528 172 559T138 635ZM230 635Q230
617 240 608T265 598Q281 598 291 607T302 635Q302 652 292 661T265 671Q250 671 240 662T230 635Z" />
<glyph unicode="&#xe6;" horiz-adv-x="827" d="M590 -15Q478 -15 413 48T341 222Q341 227 340 234T338 247Q338 333 370 387T453 468T564 495Q633 495 684 468T765 394T794 285Q794 253 777 237T730 217L412 170L406 271L652 310Q650 337 629 360T564 384Q519
384 490 354T459 269L464 198Q473 145 510 122T600 99Q642 99 679 110T739 135Q753 126 763 110T774 75Q774 45 750 25T685 -5T590 -15ZM256 96Q278 96 300 100T333 112V206L249 198Q216 196 197 184T177 148Q177 125 195 111T256 96ZM253 -16Q151 -16 91 24T31
143Q31 211 73 247T198 293L332 307V318Q332 352 306 367T230 382Q192 382 156 373T90 351Q78 360 70 376T61 411Q61 454 107 473Q136 484 174 489T249 495Q346 495 397 450T448 317V89Q448 64 438 47T412 22Q382 5 346 -5T253 -16Z" />
<glyph unicode="&#xe7;" horiz-adv-x="487" d="M318 376Q264 376 226 341T188 239Q188 172 224 139T317 105Q350 105 374 113T416 131Q433 119 442 105T451 69Q451 31 411 8T301 -15Q221 -15 161 13T68 99T35 239Q35 325 71 382T166 467T296 495Q365 495 405 471T445
408Q445 390 437 375T416 350Q398 359 374 367T318 376ZM229 4L311 33Q347 13 361 -18T375 -84Q375 -135 344 -167T257 -199Q219 -199 196 -181T173 -129Q173 -113 177 -101H188Q221 -101 235 -86T249 -48Q249 -36 244 -22T229 4Z" />
<glyph unicode="&#xe8;" horiz-adv-x="543" d="M128 170L122 271L368 310Q366 337 345 360T280 384Q235 384 206 354T175 269L180 198Q189 145 226 122T316 99Q358 99 395 110T454 135Q469 126 479 110T489 75Q489 45 466 25T401 -5T305 -15Q228 -15 167 14T70
101T35 247Q35 311 55 358T110 435T188 480T280 495Q348 495 400 468T481 394T510 285Q510 253 493 237T445 217L128 170ZM218 551L121 643Q120 647 120 654T119 664Q119 697 138 715T184 733Q202 733 218 726T250 701L339 589Q336 558 317 543T276 527Q257 527
244 533T218 551Z" />
<glyph unicode="&#xe9;" horiz-adv-x="543" d="M128 170L122 271L368 310Q366 337 345 360T280 384Q235 384 206 354T175 269L180 198Q189 145 226 122T316 99Q358 99 395 110T454 135Q469 126 479 110T489 75Q489 45 466 25T401 -5T305 -15Q228 -15 167 14T70
101T35 247Q35 311 55 358T110 435T188 480T280 495Q348 495 400 468T481 394T510 285Q510 253 493 237T445 217L128 170ZM236 629L336 738Q382 738 405 718T428 673Q428 652 419 638T388 606L294 525Q255 525 235 544T215 585Q215 596 219 606T236 629Z" />
<glyph unicode="&#xea;" horiz-adv-x="543" d="M128 170L122 271L368 310Q366 337 345 360T280 384Q235 384 206 354T175 269L180 198Q189 145 226 122T316 99Q358 99 395 110T454 135Q469 126 479 110T489 75Q489 45 466 25T401 -5T305 -15Q228 -15 167 14T70
101T35 247Q35 311 55 358T110 435T188 480T280 495Q348 495 400 468T481 394T510 285Q510 253 493 237T445 217L128 170ZM326 569L281 624Q256 595 238 576T199 531Q164 531 144 547T123 588Q123 606 133 619T162 652L202 693Q220 710 239 720T283 731Q307 731
327 722T371 683L445 593Q445 568 431 551T386 533Q368 533 355 543T326 569Z" />
<glyph unicode="&#xeb;" horiz-adv-x="543" d="M128 170L122 271L368 310Q366 337 345 360T280 384Q235 384 206 354T175 269L180 198Q189 145 226 122T316 99Q358 99 395 110T454 135Q469 126 479 110T489 75Q489 45 466 25T401 -5T305 -15Q228 -15 167 14T70
101T35 247Q35 311 55 358T110 435T188 480T280 495Q348 495 400 468T481 394T510 285Q510 253 493 237T445 217L128 170ZM245 880Q245 848 224 827T167 805Q134 805 113 826T91 880Q91 911 112 933T167 955Q202 955 223 933T245 880ZM451 880Q451 848 430 827T374
805Q341 805 319 826T297 880Q297 911 319 933T374 955Q409 955 430 933T451 880Z" />
<glyph unicode="&#xec;" horiz-adv-x="273" d="M61 275H212V0Q202 -2 184 -5T145 -8Q101 -8 81 7T61 63V275ZM212 228H61V475Q71 477 89 480T129 483Q173 483 192 468T212 412V228ZM78 551L-19 643Q-20 647 -20 654T-21 664Q-21 697 -3 715T44 733Q62 733 78 726T110
701L199 589Q196 558 177 543T136 527Q117 527 104 533T78 551Z" />
<glyph unicode="&#xed;" horiz-adv-x="273" d="M61 275H212V0Q202 -2 184 -5T145 -8Q101 -8 81 7T61 63V275ZM212 228H61V475Q71 477 89 480T129 483Q173 483 192 468T212 412V228ZM95 629L196 738Q241 738 264 718T288 673Q288 652 279 638T248 606L153 525Q115
525 95 544T74 585Q74 596 78 606T95 629Z" />
<glyph unicode="&#xee;" horiz-adv-x="273" d="M61 275H212V0Q202 -2 184 -5T145 -8Q101 -8 81 7T61 63V275ZM212 228H61V475Q71 477 89 480T129 483Q173 483 192 468T212 412V228ZM182 569L136 624Q111 595 93 576T54 531Q19 531 -1 547T-22 588Q-22 606 -12
619T17 652L57 693Q75 710 94 720T139 731Q163 731 182 722T227 683L300 593Q300 568 286 551T241 533Q224 533 210 543T182 569Z" />
<glyph unicode="&#xef;" horiz-adv-x="273" d="M61 275H212V0Q202 -2 184 -5T145 -8Q101 -8 81 7T61 63V275ZM212 228H61V475Q71 477 89 480T129 483Q173 483 192 468T212 412V228ZM110 624Q110 592 89 571T32 549Q-1 549 -22 570T-44 624Q-44 656 -23 677T32
699Q67 699 88 678T110 624ZM316 624Q316 592 295 571T239 549Q206 549 184 570T162 624Q162 656 184 677T239 699Q273 699 294 678T316 624Z" />
<glyph unicode="&#xf0;" horiz-adv-x="575" d="M377 553L326 533L143 465Q130 475 120 491T109 527Q109 557 140 570L211 598L301 635L442 691Q455 682 466 665T477 629Q477 609 468 599T443 582L377 553ZM411 395L393 281Q377 308 351 323T293 339Q242 339 216
307T189 223Q189 168 215 136T289 104Q337 104 360 137T384 226Q384 256 381 281T370 331Q367 346 368 358T371 381T367 404Q348 443 326 474T268 536Q259 543 246 553T224 570Q199 586 171 597T110 619Q112 660 132 680T184 700Q225 700 269 682T356 630Q363 623
370 617T385 604Q429 563 463 508T518 390T539 255Q539 176 512 115T430 19T288 -15Q172 -15 104 49T35 223Q35 300 68 351T153 427T264 452Q314 452 351 436T411 395Z" />
<glyph unicode="&#xf1;" horiz-adv-x="578" d="M520 311V217H370V306Q370 343 349 360T292 377Q268 377 248 371T210 356V217H59V373Q59 398 70 414T101 445Q133 467 183 481T294 495Q402 495 461 448T520 311ZM59 263H210V1Q200 -2 182 -4T142 -7Q99 -7 79 8T59
63V263ZM370 263H520V1Q510 -2 492 -4T453 -7Q409 -7 390 8T370 63V263ZM204 701Q232 701 258 694T305 679T343 671Q364 671 375 683T391 707H396Q425 707 446 688T467 636Q467 595 441 575T374 554Q343 554 318 562T273 577T235 585Q214 585 204 573T187 549H183Q154
549 133 568T111 620Q111 647 125 665T160 692T204 701Z" />
<glyph unicode="&#xf2;" horiz-adv-x="579" d="M544 240Q544 162 513 105T424 16T290 -15Q213 -15 156 15T67 103T35 240Q35 319 67 376T156 464T290 495Q366 495 423 464T512 375T544 240ZM289 377Q243 377 216 341T189 240Q189 174 215 139T290 103Q337 103
363 139T390 240Q390 305 363 341T289 377ZM255 551L158 643Q157 647 157 654T156 664Q156 697 175 715T221 733Q239 733 255 726T287 701L376 589Q373 558 354 543T313 527Q294 527 281 533T255 551Z" />
<glyph unicode="&#xf3;" horiz-adv-x="579" d="M544 240Q544 162 513 105T424 16T290 -15Q213 -15 156 15T67 103T35 240Q35 319 67 376T156 464T290 495Q366 495 423 464T512 375T544 240ZM289 377Q243 377 216 341T189 240Q189 174 215 139T290 103Q337 103
363 139T390 240Q390 305 363 341T289 377ZM228 629L328 738Q374 738 397 718T420 673Q420 652 411 638T380 606L286 525Q247 525 227 544T207 585Q207 596 211 606T228 629Z" />
<glyph unicode="&#xf4;" horiz-adv-x="579" d="M544 240Q544 162 513 105T424 16T290 -15Q213 -15 156 15T67 103T35 240Q35 319 67 376T156 464T290 495Q366 495 423 464T512 375T544 240ZM289 377Q243 377 216 341T189 240Q189 174 215 139T290 103Q337 103
363 139T390 240Q390 305 363 341T289 377ZM332 569L287 624Q262 595 244 576T205 531Q170 531 150 547T129 588Q129 606 139 619T168 652L208 693Q226 710 245 720T289 731Q313 731 333 722T377 683L451 593Q451 568 437 551T392 533Q374 533 361 543T332 569Z"
/>
<glyph unicode="&#xf5;" horiz-adv-x="579" d="M544 240Q544 162 513 105T424 16T290 -15Q213 -15 156 15T67 103T35 240Q35 319 67 376T156 464T290 495Q366 495 423 464T512 375T544 240ZM289 377Q243 377 216 341T189 240Q189 174 215 139T290 103Q337 103
363 139T390 240Q390 305 363 341T289 377ZM206 701Q234 701 260 694T307 679T345 671Q366 671 377 683T393 707H398Q427 707 448 688T469 636Q469 595 443 575T376 554Q345 554 320 562T275 577T237 585Q216 585 206 573T189 549H185Q156 549 135 568T113 620Q113
647 127 665T162 692T206 701Z" />
<glyph unicode="&#xf6;" horiz-adv-x="579" d="M544 240Q544 162 513 105T424 16T290 -15Q213 -15 156 15T67 103T35 240Q35 319 67 376T156 464T290 495Q366 495 423 464T512 375T544 240ZM289 377Q243 377 216 341T189 240Q189 174 215 139T290 103Q337 103
363 139T390 240Q390 305 363 341T289 377ZM263 880Q263 848 242 827T185 805Q152 805 131 826T109 880Q109 911 130 933T185 955Q220 955 241 933T263 880ZM469 880Q469 848 448 827T392 805Q359 805 337 826T315 880Q315 911 337 933T392 955Q427 955 448 933T469
880Z" />
<glyph unicode="&#xf7;" horiz-adv-x="524" d="M434 231H49Q43 242 39 256T35 289Q35 321 50 336T90 351H475Q480 342 485 326T490 291Q490 259 475 245T434 231ZM191 123Q191 155 211 176T265 197Q298 197 317 176T337 123Q337 92 318 71T265 50Q231 50 211 71T191
123ZM191 458Q191 490 211 511T265 532Q298 532 317 511T337 458Q337 426 318 406T265 385Q231 385 211 405T191 458Z" />
<glyph unicode="&#xf8;" horiz-adv-x="579" d="M437 386L383 451L443 542Q456 542 470 536T495 520T506 496Q506 487 499 476L437 386ZM211 48L137 -61Q123 -61 109 -55T84 -38T74 -16Q74 -5 82 5L136 84L211 48ZM230 79L182 150L342 389L413 356L230 79ZM544
240Q544 162 513 105T424 16T290 -15Q213 -15 156 15T67 103T35 240Q35 319 67 376T156 464T290 495Q366 495 423 464T512 375T544 240ZM290 378Q243 378 211 344T179 240Q179 174 210 138T290 102Q337 102 368 136T400 240Q400 308 368 343T290 378Z" />
<glyph unicode="&#xf9;" horiz-adv-x="575" d="M57 188V259H208V189Q208 144 231 124T296 103Q323 103 341 108T368 118V259H518V99Q518 75 509 58T478 28Q446 8 399 -3T295 -15Q225 -15 171 6T87 71T57 188ZM518 214H368V479Q377 482 395 484T435 487Q479 487
498 473T518 417V214ZM208 214H57V479Q67 482 85 484T125 487Q169 487 188 473T208 417V214ZM220 551L123 643Q122 647 122 654T121 664Q121 697 140 715T186 733Q204 733 220 726T252 701L341 589Q338 558 319 543T278 527Q259 527 246 533T220 551Z" />
<glyph unicode="&#xfa;" horiz-adv-x="575" d="M57 188V259H208V189Q208 144 231 124T296 103Q323 103 341 108T368 118V259H518V99Q518 75 509 58T478 28Q446 8 399 -3T295 -15Q225 -15 171 6T87 71T57 188ZM518 214H368V479Q377 482 395 484T435 487Q479 487
498 473T518 417V214ZM208 214H57V479Q67 482 85 484T125 487Q169 487 188 473T208 417V214ZM255 629L355 738Q401 738 424 718T447 673Q447 652 438 638T407 606L313 525Q274 525 254 544T234 585Q234 596 238 606T255 629Z" />
<glyph unicode="&#xfb;" horiz-adv-x="575" d="M57 188V259H208V189Q208 144 231 124T296 103Q323 103 341 108T368 118V259H518V99Q518 75 509 58T478 28Q446 8 399 -3T295 -15Q225 -15 171 6T87 71T57 188ZM518 214H368V479Q377 482 395 484T435 487Q479 487
498 473T518 417V214ZM208 214H57V479Q67 482 85 484T125 487Q169 487 188 473T208 417V214ZM331 569L286 624Q261 595 243 576T204 531Q169 531 149 547T128 588Q128 606 138 619T167 652L207 693Q225 710 244 720T288 731Q312 731 332 722T376 683L450 593Q450
568 436 551T391 533Q373 533 360 543T331 569Z" />
<glyph unicode="&#xfc;" horiz-adv-x="575" d="M57 188V259H208V189Q208 144 231 124T296 103Q323 103 341 108T368 118V259H518V99Q518 75 509 58T478 28Q446 8 399 -3T295 -15Q225 -15 171 6T87 71T57 188ZM518 214H368V479Q377 482 395 484T435 487Q479 487
498 473T518 417V214ZM208 214H57V479Q67 482 85 484T125 487Q169 487 188 473T208 417V214ZM259 880Q259 848 238 827T181 805Q148 805 127 826T105 880Q105 911 126 933T181 955Q216 955 237 933T259 880ZM465 880Q465 848 444 827T388 805Q355 805 333 826T311
880Q311 911 333 933T388 955Q423 955 444 933T465 880Z" />
<glyph unicode="&#xfd;" horiz-adv-x="538" d="M137 119Q121 153 103 199T64 310T22 458Q35 472 55 481T101 491Q132 491 152 478T183 428Q206 355 228 284T275 139H279Q296 184 313 241T345 358T370 474Q385 482 401 486T435 491Q466 491 489 477T512 431Q512
402 504 361T481 273T448 176T409 81T367 -1Q313 -96 267 -142T176 -189Q140 -189 116 -167T87 -110Q109 -92 131 -69T175 -19T213 33Q196 38 178 55T137 119ZM211 629L311 738Q357 738 380 718T403 673Q403 652 394 638T363 606L269 525Q230 525 210 544T190 585Q190
596 194 606T211 629Z" />
<glyph unicode="&#xfe;" horiz-adv-x="580" d="M298 -15Q261 -15 232 -6T179 15V143Q197 128 220 117T276 105Q330 105 360 139T390 243Q390 291 376 320T338 363T280 377Q258 377 233 370T182 342L176 466Q196 475 228 485T303 495Q369 495 423 469T511 387T544
243Q544 159 512 102T425 15T298 -15ZM142 -178Q99 -178 79 -163T59 -108V92L210 91V-170Q200 -173 182 -175T142 -178ZM59 54V651Q69 654 87 657T127 660Q171 660 190 645T210 589V54H59Z" />
<glyph unicode="&#xff;" horiz-adv-x="538" d="M137 119Q121 153 103 199T64 310T22 458Q35 472 55 481T101 491Q132 491 152 478T183 428Q206 355 228 284T275 139H279Q296 184 313 241T345 358T370 474Q385 482 401 486T435 491Q466 491 489 477T512 431Q512
402 504 361T481 273T448 176T409 81T367 -1Q313 -96 267 -142T176 -189Q140 -189 116 -167T87 -110Q109 -92 131 -69T175 -19T213 33Q196 38 178 55T137 119ZM239 880Q239 848 218 827T161 805Q128 805 107 826T85 880Q85 911 106 933T161 955Q196 955 217 933T239
880ZM445 880Q445 848 424 827T368 805Q335 805 313 826T291 880Q291 911 313 933T368 955Q403 955 424 933T445 880Z" />
<glyph unicode="&#x2013;" horiz-adv-x="539" d="M457 195H44Q38 205 33 221T27 255Q27 287 42 302T83 317H496Q501 308 506 292T512 258Q512 225 497 210T457 195Z" />
<glyph unicode="&#x2014;" horiz-adv-x="774" d="M683 196H52Q45 206 40 221T35 255Q35 288 50 302T91 317H723Q728 308 733 292T739 258Q739 226 724 211T683 196Z" />
<glyph unicode="&#x2018;" horiz-adv-x="204" d="M67 602Q77 619 91 626T126 634Q142 634 156 630T184 620Q181 583 177 542T170 461T165 387Q152 381 133 375T94 368Q65 368 42 381T19 427Q19 452 26 486T44 552T67 602Z" />
<glyph unicode="&#x2019;" horiz-adv-x="202" d="M136 400Q126 385 113 377T78 368Q61 368 47 372T19 383Q23 419 27 460T34 542T39 615Q51 622 71 628T110 634Q138 634 161 621T184 575Q184 551 178 517T160 452T136 400Z" />
<glyph unicode="&#x201a;" horiz-adv-x="207" d="M136 -99Q126 -114 113 -122T78 -131Q61 -131 47 -127T19 -116Q23 -80 27 -39T34 43T39 116Q51 123 71 129T110 135Q138 135 161 122T184 76Q184 52 178 18T160 -47T136 -99Z" />
<glyph unicode="&#x201c;" horiz-adv-x="385" d="M256 602Q266 619 278 626T311 634Q328 634 340 631T365 621Q362 585 358 543T351 461T345 386Q332 379 315 374T278 368Q248 368 228 381T208 427Q208 452 215 486T233 552T256 602ZM66 602Q76 619 88 626T121
634Q138 634 150 631T176 621Q172 585 168 543T161 461T156 386Q143 379 126 374T89 368Q59 368 39 381T18 427Q18 452 25 486T43 552T66 602Z" />
<glyph unicode="&#x201d;" horiz-adv-x="385" d="M129 400Q119 385 107 377T74 368Q57 368 45 371T19 381Q23 418 27 460T34 543T39 617Q51 624 69 629T105 634Q136 634 156 621T176 575Q176 551 169 517T152 452T129 400ZM318 400Q308 385 296 377T263 368Q246
368 234 371T209 381Q212 418 216 460T223 543T228 617Q241 624 258 629T295 634Q325 634 345 621T365 575Q365 551 359 517T341 452T318 400Z" />
<glyph unicode="&#x201e;" horiz-adv-x="388" d="M129 -99Q119 -114 107 -122T74 -131Q57 -131 45 -128T19 -118Q23 -81 27 -39T34 44T39 118Q51 125 69 130T105 135Q136 135 156 122T176 76Q176 52 169 18T152 -47T129 -99ZM318 -99Q308 -114 296 -122T263 -131Q246
-131 234 -128T209 -118Q212 -81 216 -39T223 44T228 118Q241 125 258 130T295 135Q325 135 345 122T365 76Q365 52 359 18T341 -47T318 -99Z" />
<glyph unicode="&#x2022;" horiz-adv-x="302" d="M38 282Q38 330 68 363T151 396Q203 396 233 363T264 282Q264 234 234 202T151 169Q99 169 69 201T38 282Z" />
<glyph unicode="&#x2039;" horiz-adv-x="315" d="M154 222L281 91Q281 66 264 45T212 24Q192 24 176 35T144 62L44 165Q39 175 35 189T30 219Q30 247 37 264T55 292L202 436Q236 427 253 409T271 368Q271 348 263 333T229 293L154 222Z" />
<glyph unicode="&#x203a;" horiz-adv-x="315" d="M161 238L34 368Q34 394 51 415T103 436Q123 436 139 425T171 398L271 294Q277 285 281 271T285 241Q285 212 278 195T259 168L113 24Q80 34 62 52T44 91Q44 112 52 127T86 166L161 238Z" />
</font>
</defs>
</svg>
